<?xml version="1.0" standalone="no"?>
<!DOCTYPE svg PUBLIC "-//W3C//DTD SVG 20010904//EN"
 "http://www.w3.org/TR/2001/REC-SVG-20010904/DTD/svg10.dtd">
<svg version="1.0" xmlns="http://www.w3.org/2000/svg"
 width="300.000000pt" height="380.000000pt" viewBox="0 0 300.000000 380.000000"
 preserveAspectRatio="xMidYMid meet">
<metadata>
Created by potrace 1.10, written by Peter Selinger 2001-2011
</metadata>
<g transform="translate(0.000000,380.000000) scale(0.100000,-0.100000)"
fill="#000000" stroke="none">
<path d="M1520 3691 c-35 -11 -12 -18 85 -26 62 -4 77 -3 68 6 -7 7 -27 13
-45 15 -18 2 -44 5 -58 8 -14 2 -36 1 -50 -3z"/>
<path d="M1404 3665 c-15 -11 -16 -14 -3 -15 8 0 19 4 25 9 5 5 18 11 29 14
16 4 15 5 -6 6 -14 0 -34 -6 -45 -14z"/>
<path d="M1295 3636 c-19 -14 -17 -15 28 -16 35 0 47 4 45 13 -7 18 -50 20
-73 3z"/>
<path d="M1538 3643 c6 -3 12 -8 12 -13 0 -4 21 -11 48 -15 37 -6 43 -9 27
-16 -16 -6 -16 -8 -3 -8 30 -2 138 -63 185 -105 25 -23 54 -61 64 -86 l18 -45
-3 54 c-3 38 -9 57 -21 64 -14 7 -16 6 -11 -4 4 -8 -2 -3 -13 11 -11 14 -21
28 -21 33 0 4 -4 7 -9 7 -6 0 -22 11 -36 24 -14 13 -48 30 -75 36 -32 8 -51
18 -55 30 -4 11 -20 20 -43 25 -55 10 -79 13 -64 8z"/>
<path d="M1303 3545 c-24 -17 -29 -24 -18 -29 8 -3 17 -1 20 4 4 6 11 10 16
10 6 0 7 -4 4 -10 -3 -5 -1 -10 5 -10 6 0 21 -10 34 -22 49 -49 58 -49 12 0
-42 43 -47 53 -36 67 18 22 0 17 -37 -10z"/>
<path d="M1370 3553 c0 -7 85 -58 101 -60 32 -5 21 13 -18 31 l-38 16 53 -5
c29 -2 52 0 52 5 0 6 -8 11 -17 11 -33 3 -133 4 -133 2z"/>
<path d="M1620 3539 c-12 -8 -10 -9 8 -4 17 5 30 -2 57 -30 19 -21 33 -40 32
-45 -2 -7 83 -88 109 -103 8 -5 14 -4 14 3 0 5 -5 10 -11 10 -6 0 -8 7 -5 16
7 19 -64 92 -132 135 -52 33 -51 33 -72 18z"/>
<path d="M1935 3517 c-9 -21 -8 -22 23 -31 13 -5 22 -3 22 3 0 6 -6 11 -14 11
-8 0 -16 8 -19 18 -4 16 -4 16 -12 -1z"/>
<path d="M1624 3498 c-9 -15 23 -38 54 -38 32 0 20 16 -18 24 -18 3 -29 10
-25 16 3 5 4 10 1 10 -3 0 -8 -5 -12 -12z"/>
<path d="M1480 3471 c-32 -9 -36 -32 -9 -49 20 -13 21 -12 16 8 -3 14 0 23 10
27 18 7 33 -14 26 -36 -4 -14 -3 -14 6 -1 6 8 11 10 11 5 0 -6 -5 -16 -10 -21
-7 -7 -3 -24 15 -55 20 -36 25 -40 25 -21 0 13 -5 33 -12 45 -10 20 -10 21 5
8 22 -18 22 -6 0 27 -10 15 -23 36 -29 46 -12 24 -21 26 -54 17z"/>
<path d="M1569 3459 c13 -14 18 -32 17 -62 -3 -45 11 -77 31 -77 7 0 13 -5 13
-11 0 -5 -5 -7 -12 -3 -7 4 -8 3 -4 -5 4 -6 12 -9 17 -6 5 4 9 0 9 -7 0 -10 2
-10 9 1 5 8 5 26 -1 43 -9 24 -15 29 -34 25 -24 -4 -34 8 -12 15 7 3 8 9 2 19
-10 16 -12 69 -2 69 8 0 43 -49 50 -70 3 -10 6 -7 11 9 7 28 -37 75 -65 68
-10 -3 -21 -1 -24 4 -3 5 -10 9 -15 9 -5 0 -1 -9 10 -21z"/>
<path d="M1247 3444 c4 -11 3 -15 -4 -11 -6 4 -14 1 -16 -5 -4 -10 -6 -10 -6
0 -1 14 -39 16 -59 3 -20 -13 65 -24 88 -11 20 11 47 9 67 -3 9 -5 11 -3 7 6
-3 8 -15 17 -27 20 -12 2 -30 8 -40 12 -14 6 -16 4 -10 -11z"/>
<path d="M1370 3420 c16 -14 30 -31 30 -37 0 -6 7 -17 16 -24 9 -7 20 -23 25
-36 5 -14 14 -21 23 -17 13 5 12 13 -8 53 -14 26 -36 52 -50 59 -14 6 -26 15
-26 20 0 4 -9 8 -20 8 -18 0 -16 -4 10 -26z"/>
<path d="M1684 3421 c18 -20 48 -129 40 -143 -3 -5 -1 -8 5 -8 17 0 17 64 -1
100 -21 42 -42 70 -53 70 -5 0 0 -9 9 -19z"/>
<path d="M1296 3395 c4 -8 11 -15 18 -15 6 0 28 -13 49 -29 30 -23 34 -30 21
-35 -9 -3 -28 2 -42 12 -43 30 -47 31 -62 20 -12 -8 -12 -9 3 -4 24 8 92 -53
77 -68 -8 -8 -14 -6 -21 7 -12 21 -86 60 -102 53 -7 -2 -4 -5 5 -5 9 -1 20 -5
23 -11 3 -6 -1 -7 -9 -4 -9 3 -16 1 -16 -5 0 -6 4 -11 9 -11 5 0 22 -5 38 -12
15 -6 33 -10 38 -9 6 1 5 -3 -2 -10 -8 -7 -21 -9 -40 -3 -35 10 -138 13 -122
4 6 -4 1 -10 -13 -14 -19 -5 -20 -8 -8 -16 12 -8 12 -10 1 -10 -8 0 -19 7 -25
16 -10 13 -14 12 -34 -10 -19 -23 -20 -26 -4 -27 10 0 12 -3 5 -6 -7 -2 -13
-9 -13 -15 0 -6 8 -3 19 6 10 9 35 21 55 27 20 6 34 14 31 19 -4 6 3 6 17 1
13 -4 36 -4 53 0 16 5 44 8 60 7 49 -2 76 11 73 35 -2 14 3 23 15 25 10 2 16
0 15 -5 -2 -4 0 -9 5 -10 9 -4 10 -2 1 22 -9 27 -65 85 -75 79 -5 -3 -18 0
-29 6 -16 9 -18 8 -14 -5z"/>
<path d="M2088 3393 c10 -4 10 -8 1 -20 -7 -8 -8 -13 -3 -11 5 2 10 -1 12 -7
4 -12 32 -29 38 -22 3 2 -2 12 -11 20 -8 9 -15 23 -15 31 0 9 -8 16 -17 15
-12 0 -13 -2 -5 -6z"/>
<path d="M1226 3382 c-3 -5 -31 -12 -62 -15 -31 -3 -62 -11 -68 -17 -8 -9 -3
-10 19 -7 17 2 38 7 48 12 10 4 32 5 50 1 20 -4 27 -3 18 3 -11 7 -11 9 0 13
8 3 11 8 8 12 -4 4 -10 3 -13 -2z"/>
<path d="M1667 3378 c-3 -8 -1 -21 4 -29 5 -8 9 -24 9 -36 0 -13 4 -23 10 -23
10 0 4 64 -9 87 -7 13 -9 13 -14 1z"/>
<path d="M1951 3376 c23 -23 75 -30 82 -12 4 9 1 16 -6 17 -7 1 -30 3 -51 5
-33 3 -37 1 -25 -10z"/>
<path d="M1476 3355 c4 -16 7 -37 8 -46 0 -9 6 -16 13 -16 7 0 11 2 8 5 -2 3
0 13 5 23 7 12 6 20 -2 25 -6 4 -8 3 -4 -4 3 -6 2 -13 -4 -17 -5 -3 -10 2 -10
12 0 10 -5 25 -11 33 -8 11 -9 8 -3 -15z"/>
<path d="M1773 3358 c9 -15 17 -36 17 -47 0 -11 4 -22 8 -25 18 -11 -2 64 -21
81 l-21 18 17 -27z"/>
<path d="M2025 3330 c3 -5 0 -10 -7 -10 -10 0 -10 -2 1 -9 8 -5 19 -7 25 -5 6
2 23 -7 38 -21 15 -14 29 -21 33 -16 3 5 -14 23 -37 40 -42 31 -65 40 -53 21z"/>
<path d="M1523 3319 c-15 -15 -6 -39 12 -33 10 4 12 -1 8 -18 -4 -18 -3 -20 6
-8 7 10 11 11 11 3 0 -7 4 -13 9 -13 13 0 3 30 -17 58 -13 17 -20 20 -29 11z"/>
<path d="M1920 3272 c0 -4 29 -16 64 -27 57 -18 62 -19 52 -3 -5 9 -12 15 -14
13 -3 -2 -12 -1 -21 4 -24 12 -81 22 -81 13z"/>
<path d="M1874 3236 c-11 -9 -13 -15 -6 -20 6 -3 14 -1 18 5 5 8 9 8 14 -1 4
-7 13 -11 19 -9 7 3 4 11 -8 21 -16 14 -22 14 -37 4z"/>
<path d="M2086 3236 c10 -8 19 -20 19 -27 0 -7 5 -14 12 -16 6 -2 10 3 9 13
-3 17 -33 44 -50 44 -5 0 -1 -6 10 -14z"/>
<path d="M1970 3197 c14 -6 27 -14 30 -17 7 -9 49 -7 44 2 -5 8 -72 28 -89 27
-5 0 1 -6 15 -12z"/>
<path d="M978 3146 c-50 -29 -53 -34 -26 -32 13 0 29 9 37 19 7 10 23 22 35
27 11 5 14 9 6 8 -8 0 -32 -10 -52 -22z"/>
<path d="M2035 3140 c-11 -5 -14 -9 -7 -9 7 -1 20 -8 28 -16 18 -17 34 -20 34
-5 0 6 10 2 22 -9 11 -11 25 -18 30 -14 6 3 22 -4 37 -14 14 -11 36 -23 47
-27 11 -3 30 -15 42 -27 17 -15 22 -16 22 -5 0 16 -84 79 -92 70 -3 -3 -22 5
-42 17 -20 11 -36 18 -36 14 0 -3 -12 3 -26 14 -29 23 -30 23 -59 11z"/>
<path d="M2106 3067 c4 -11 1 -17 -7 -17 -7 0 -3 -10 11 -25 13 -14 28 -25 33
-25 5 0 -1 9 -14 19 -13 11 -20 23 -16 28 5 4 15 -1 23 -11 7 -11 16 -17 18
-15 6 6 -4 20 -32 43 -19 17 -22 17 -16 3z"/>
<path d="M899 2708 c-7 -13 -13 -36 -15 -53 -1 -16 -5 -48 -9 -70 -4 -22 -7
-58 -7 -80 -1 -32 -3 -37 -11 -23 -10 14 -13 14 -30 -8 -13 -17 -16 -29 -9
-37 5 -7 12 -37 16 -67 11 -103 18 -144 31 -180 16 -46 8 -190 -11 -190 -7 0
-19 8 -26 18 -7 11 -24 24 -36 31 -42 22 -60 85 -78 264 -18 179 -14 217 25
217 11 0 30 -13 44 -30 23 -27 25 -27 30 -10 3 11 1 20 -4 20 -5 0 -9 7 -9 16
0 8 -4 13 -9 10 -4 -3 -16 1 -26 8 -14 10 -27 11 -46 4 -40 -14 -53 -66 -44
-179 3 -52 8 -96 10 -99 1 -3 5 -35 9 -71 7 -83 44 -168 72 -169 5 0 23 -14
41 -29 25 -23 33 -40 38 -83 4 -29 18 -79 31 -110 33 -79 34 -206 2 -258 -52
-86 -60 -103 -44 -97 20 8 21 -14 2 -51 -38 -76 -58 -248 -57 -502 0 -275 12
-607 25 -700 7 -46 14 -137 15 -177 1 -16 7 -23 21 -23 18 0 20 5 15 38 -38
285 -60 1034 -35 1187 11 71 53 218 83 295 32 81 31 230 -2 284 -29 46 -42
166 -20 192 16 19 14 126 -5 278 -13 106 -13 155 0 186 10 23 14 50 17 112 1
31 5 60 9 64 4 4 3 14 -4 21 -8 10 -8 17 -1 21 9 7 25 52 17 52 -2 0 -9 -10
-15 -22z"/>
<path d="M1122 2653 c1 -5 -3 -18 -10 -30 -14 -26 -1 -31 18 -8 7 8 9 15 5 15
-4 0 -2 7 5 15 10 12 10 15 -4 15 -9 0 -15 -3 -14 -7z"/>
<path d="M1184 2627 c2 -18 -3 -23 -22 -25 -44 -4 -37 -12 9 -12 24 0 62 -2
84 -5 39 -5 39 -5 11 6 l-29 12 29 12 c18 7 31 8 35 2 4 -5 11 -1 17 9 9 17 6
19 -24 19 -19 0 -34 -3 -34 -7 0 -4 -7 -5 -15 -1 -9 3 -15 2 -13 -3 3 -10 -5
-14 -29 -13 -11 0 -13 3 -5 6 6 2 10 9 6 14 -10 17 -22 9 -20 -14z"/>
<path d="M1360 2635 c0 -5 12 -21 27 -35 15 -14 23 -19 19 -12 -4 7 -2 19 4
27 10 12 8 13 -11 10 -13 -3 -27 1 -31 8 -4 6 -8 8 -8 2z"/>
<path d="M1684 2615 c17 -13 16 -14 -9 -28 -22 -11 -24 -15 -12 -20 9 -3 19
-1 23 5 4 7 9 7 14 -1 4 -7 38 -16 76 -22 38 -5 77 -12 86 -15 21 -6 18 17 -5
40 -9 10 -17 21 -17 26 0 5 -17 7 -37 6 -21 -2 -44 1 -50 6 -7 6 -13 7 -13 3
0 -4 8 -14 18 -21 15 -12 15 -13 -7 -9 -14 3 -29 10 -35 16 -8 9 -7 10 3 4 9
-5 12 -4 8 2 -4 6 -19 13 -34 16 -25 5 -26 4 -9 -8z"/>
<path d="M1297 2592 c4 -8 14 -11 27 -8 11 3 30 6 41 6 17 0 17 2 5 10 -23 15
-79 9 -73 -8z"/>
<path d="M1906 2585 c-20 -15 -20 -15 0 -17 10 0 24 -2 31 -2 6 -1 21 -10 34
-21 l22 -20 -13 24 c-6 13 -20 26 -31 28 -10 3 -16 9 -13 14 8 14 -9 10 -30
-6z"/>
<path d="M1070 2580 c-8 -5 -17 -7 -21 -4 -4 2 -10 -4 -14 -14 -14 -31 -13
-41 2 -35 10 4 11 8 3 13 -15 9 46 35 79 32 31 -3 24 5 -10 11 -14 3 -32 1
-39 -3z"/>
<path d="M1373 2499 c30 -29 49 -57 53 -78 6 -26 9 -30 16 -17 15 26 -24 88
-73 115 l-43 25 47 -45z"/>
<path d="M2196 2524 c-4 -9 -2 -13 5 -8 6 3 4 -4 -4 -17 -12 -19 -15 -50 -12
-151 3 -94 0 -131 -9 -141 -7 -7 -12 -25 -12 -40 1 -15 -2 -27 -7 -27 -5 0 -7
-7 -3 -15 3 -8 1 -15 -5 -15 -6 0 -7 -5 -3 -12 5 -8 2 -9 -11 -4 -15 5 -16 4
-6 -8 10 -11 10 -24 2 -48 -8 -26 -7 -44 8 -87 10 -32 21 -50 25 -43 4 7 17
12 29 12 54 1 168 116 186 189 17 66 36 292 27 326 -10 38 -64 86 -85 75 -9
-5 -31 -13 -49 -19 -32 -10 -34 -9 -45 19 -13 33 -22 38 -31 14z m64 -68 c0
-4 12 -1 26 9 32 20 69 13 85 -17 19 -36 -10 -318 -39 -374 -28 -55 -105 -114
-149 -114 -41 0 -42 13 -12 126 33 126 39 152 44 202 8 69 8 149 1 160 -3 6
-3 17 0 26 5 12 9 13 25 3 10 -6 19 -16 19 -21z"/>
<path d="M2304 2389 c-16 -24 -36 -60 -44 -79 -7 -19 -18 -41 -23 -47 -5 -7
-5 -13 -1 -13 5 0 19 23 32 50 13 28 26 50 31 50 4 0 13 -22 21 -50 7 -27 16
-48 18 -45 3 2 -3 30 -13 60 -16 53 -16 57 0 75 9 10 15 24 13 31 -2 7 -18 -7
-34 -32z"/>
<path d="M2231 2183 c0 -6 -3 -18 -6 -26 -5 -10 1 -13 25 -9 16 2 33 8 36 14
3 5 -5 6 -19 3 -19 -5 -26 -2 -30 12 -3 10 -5 13 -6 6z"/>
<path d="M1964 2522 c5 -8 -1 -12 -16 -13 -19 -1 -20 -2 -4 -6 10 -3 33 -14
50 -24 41 -25 48 -24 35 4 -8 19 -17 23 -36 19 -17 -3 -24 -1 -19 6 3 6 1 14
-5 18 -8 4 -9 3 -5 -4z"/>
<path d="M1237 2511 c-9 -18 0 -46 16 -49 12 -2 17 3 17 18 0 12 4 18 11 15 6
-4 8 -13 5 -21 -3 -8 -1 -14 4 -14 6 0 10 7 10 15 0 20 4 19 49 -13 l38 -28
-41 2 c-23 1 -48 5 -56 8 -8 3 -26 6 -40 8 -19 2 -25 9 -25 28 0 14 -7 26 -15
28 -21 4 -113 -56 -105 -68 7 -12 38 3 69 32 21 19 21 19 26 -4 4 -17 16 -25
45 -31 67 -13 155 -20 155 -11 0 13 -53 64 -67 64 -7 0 -13 4 -13 10 0 5 -7 7
-15 4 -8 -4 -15 -2 -15 4 0 10 -48 14 -53 3z"/>
<path d="M1677 2474 c-21 -14 -36 -28 -34 -31 3 -3 18 5 34 17 16 11 52 25 79
29 l49 9 -45 1 c-34 1 -55 -6 -83 -25z"/>
<path d="M1719 2446 c-19 -7 -46 -20 -60 -29 l-23 -17 34 0 c19 0 46 -3 59 -7
17 -4 22 -3 17 5 -4 7 -22 12 -39 13 l-32 0 40 18 40 18 3 -24 c3 -20 8 -24
27 -19 14 4 25 1 28 -7 3 -7 6 -5 6 5 1 9 5 20 11 23 6 3 7 -1 4 -9 -7 -18 11
-22 21 -6 4 6 11 8 16 4 5 -3 6 -10 3 -16 -4 -6 -2 -8 4 -4 6 3 16 1 24 -6 21
-21 67 -42 75 -35 3 4 -1 7 -10 7 -9 0 -17 10 -19 23 -2 12 -7 21 -11 19 -4
-2 -28 9 -53 23 -25 15 -54 25 -65 22 -10 -3 -19 -1 -19 4 0 13 -38 10 -81 -5z"/>
<path d="M1120 2381 c0 -12 27 -23 65 -27 l30 -3 -32 12 c-17 7 -35 15 -39 20
-10 10 -24 9 -24 -2z"/>
<path d="M1240 2360 c-21 -7 -18 -8 18 -9 23 -1 42 3 42 7 0 10 -29 11 -60 2z"/>
<path d="M1610 2153 c5 -20 18 -45 30 -57 l22 -21 -21 35 c-12 19 -21 45 -21
58 0 12 -4 22 -9 22 -5 0 -5 -16 -1 -37z"/>
<path d="M1341 2059 c-2 -37 23 -56 44 -35 20 20 34 20 41 1 4 -8 12 -15 20
-15 8 0 14 -4 14 -10 0 -5 11 -17 25 -26 33 -21 69 -12 105 28 18 19 34 29 44
25 9 -4 16 -2 16 3 0 6 -9 10 -20 10 -14 0 -20 7 -20 22 0 34 -14 11 -19 -33
-2 -14 -51 -59 -65 -59 -8 0 -34 19 -56 41 -38 38 -44 41 -80 35 -34 -5 -39
-4 -43 16 -4 21 -4 20 -6 -3z"/>
<path d="M1670 2054 c0 -11 -8 -31 -17 -44 l-17 -25 24 16 c28 18 37 46 21 62
-8 8 -11 6 -11 -9z"/>
<path d="M1139 1944 c-15 -19 -21 -75 -10 -109 9 -29 9 -29 10 12 1 23 6 45
12 48 6 4 8 13 5 21 -3 8 -1 14 3 14 5 0 11 6 14 13 6 17 -20 18 -34 1z"/>
<path d="M1452 1938 c-13 -13 -16 -29 -4 -27 19 3 21 -3 7 -24 -13 -21 -13
-23 5 -24 11 -1 20 2 20 8 0 5 -5 9 -12 9 -6 0 -4 8 7 20 27 30 6 67 -23 38z"/>
<path d="M1531 1936 c-9 -11 -7 -15 9 -19 11 -3 18 -1 14 4 -3 5 0 9 5 9 6 0
11 5 11 10 0 15 -26 12 -39 -4z"/>
<path d="M1658 1919 c6 -7 12 -21 12 -30 0 -11 6 -16 18 -14 9 2 21 4 25 4 5
1 5 6 1 12 -4 8 -9 7 -15 -2 -7 -11 -9 -11 -9 1 0 8 -10 21 -22 29 -18 10 -20
11 -10 0z"/>
<path d="M1785 1900 c3 -6 2 -10 -2 -10 -5 0 -9 -11 -9 -25 0 -14 5 -25 11
-25 20 0 25 12 13 34 l-11 21 23 -20 23 -20 -14 22 c-7 13 -20 25 -27 28 -7 2
-10 0 -7 -5z"/>
<path d="M1849 1897 c7 -10 10 -17 5 -17 -4 0 -3 -5 3 -11 8 -8 9 -16 1 -29
-7 -10 -8 -25 -3 -36 7 -16 9 -14 18 14 12 38 0 83 -23 90 -13 5 -13 3 -1 -11z"/>
<path d="M1220 1841 c0 -15 77 -42 160 -55 106 -18 311 -13 360 7 19 8 41 12
49 9 9 -3 11 0 6 7 -4 7 -14 9 -24 6 -23 -9 -198 -35 -238 -35 -21 0 -36 6
-39 15 -4 8 -10 15 -16 15 -5 0 -6 -4 -3 -10 3 -5 2 -10 -4 -10 -20 0 -158 29
-203 43 -27 8 -48 12 -48 8z"/>
<path d="M2114 1836 c-7 -18 -12 -46 -13 -68 -1 -10 -6 -18 -11 -18 -6 0 -8
12 -5 28 3 15 2 20 -1 12 -4 -8 -10 -22 -14 -30 -5 -9 -2 -20 6 -28 11 -10 16
-7 27 15 16 31 31 103 22 103 -3 0 -8 -6 -11 -14z"/>
<path d="M969 1740 c-8 -19 -3 -71 8 -79 4 -3 10 -15 11 -26 2 -11 9 -23 15
-27 6 -4 8 -10 5 -14 -4 -4 1 -19 12 -34 11 -15 17 -30 13 -34 -3 -3 -1 -6 5
-6 16 0 55 -68 46 -81 -5 -8 -3 -9 5 -5 7 5 18 0 26 -10 11 -16 16 -17 27 -6
11 11 10 13 -2 10 -9 -2 -16 6 -18 21 -2 13 -12 25 -21 28 -12 3 -17 13 -16
33 1 17 -3 26 -10 24 -6 -3 -11 5 -12 17 -1 12 -9 29 -18 39 -9 10 -18 24 -19
32 -5 30 -20 64 -32 73 -7 5 -14 21 -16 35 -2 17 -5 20 -9 10z"/>
<path d="M1606 1676 c6 -15 -11 -17 -31 -4 -6 4 -16 4 -21 0 -13 -9 -13 -52
-1 -52 5 0 7 9 4 21 -4 16 -3 18 9 8 8 -6 14 -8 14 -3 0 5 5 2 10 -6 7 -11 10
-11 10 -2 0 7 5 10 10 7 6 -3 10 3 10 14 0 11 -4 23 -10 26 -5 3 -7 0 -4 -9z"/>
<path d="M1378 1673 c-26 -4 -41 -33 -17 -33 5 0 7 5 4 10 -3 6 -1 10 6 10 6
0 9 -8 6 -20 -3 -11 -1 -20 4 -20 5 0 9 9 9 20 0 12 5 17 13 14 8 -3 14 2 14
11 0 8 -3 14 -6 14 -3 -1 -18 -4 -33 -6z"/>
<path d="M1990 1637 c-18 -27 -19 -37 -7 -62 10 -18 9 -19 -8 -5 -14 12 -19
12 -23 2 -2 -7 -10 -18 -17 -26 -8 -7 -17 -25 -21 -40 -3 -14 -10 -24 -14 -21
-4 3 -13 -2 -20 -10 -9 -10 -9 -15 -1 -15 6 0 11 -5 11 -10 0 -6 -12 -8 -27
-5 -16 3 -21 2 -13 -2 8 -3 24 -16 34 -27 l19 -21 -5 22 c-4 14 3 31 23 53 16
17 29 38 29 46 0 8 4 13 9 10 4 -3 25 18 45 48 35 51 47 84 25 70 -6 -3 -14
-2 -18 4 -4 7 -12 3 -21 -11z"/>
<path d="M2066 1614 c-4 -10 -14 -59 -21 -109 -21 -139 -7 -302 43 -500 73
-289 145 -655 173 -875 15 -119 18 -130 33 -130 11 0 14 18 13 79 -1 43 -5 74
-10 68 -4 -7 -6 5 -4 25 3 21 2 40 -1 43 -3 3 -7 16 -9 28 -2 12 -5 31 -7 42
-2 11 1 26 7 33 7 9 6 11 -7 6 -13 -5 -17 -2 -15 12 1 10 -1 27 -6 36 -4 10
-5 25 -1 33 3 8 -1 20 -8 27 -7 8 -12 33 -12 57 1 23 -2 45 -6 47 -4 2 -5 13
-3 24 2 11 1 20 -4 20 -4 0 -12 26 -19 58 -20 90 -63 285 -67 302 -2 8 -13 53
-25 100 -11 47 -24 100 -29 117 -5 18 -8 48 -7 68 1 19 -1 35 -4 35 -3 0 -5
19 -5 43 1 23 -3 50 -7 60 -10 20 2 23 21 5 9 -8 7 -1 -3 19 -15 30 -15 42 -3
120 14 87 10 150 -7 107z"/>
<path d="M925 1485 c-28 -100 10 -192 125 -305 42 -41 116 -100 164 -130 48
-30 130 -84 184 -118 174 -115 176 -115 307 -9 190 152 284 273 301 386 9 54
-12 50 -22 -4 -3 -20 -10 -38 -15 -41 -5 -3 -9 -13 -9 -23 0 -10 -7 -24 -15
-31 -9 -7 -13 -15 -11 -17 8 -8 -37 -52 -47 -46 -6 3 -7 1 -4 -4 4 -6 -6 -25
-22 -42 -16 -17 -31 -35 -33 -39 -9 -21 -100 -92 -110 -86 -6 4 -8 3 -4 -4 3
-6 -10 -23 -31 -38 -21 -15 -43 -34 -50 -42 -17 -20 -86 -27 -114 -11 -13 7
-28 13 -32 14 -4 0 -11 5 -15 10 -4 6 -23 22 -42 35 -39 27 -70 59 -70 72 0 4
-5 8 -11 8 -8 0 -8 -5 1 -15 19 -23 3 -18 -22 8 -13 13 -29 22 -36 19 -7 -2
-12 1 -12 7 0 6 -7 11 -15 11 -8 0 -15 5 -15 10 0 6 -5 10 -11 10 -13 0 -100
60 -137 94 -77 69 -117 118 -143 171 -30 62 -35 84 -21 101 5 5 5 25 2 44 l-6
35 -9 -30z"/>
<path d="M1804 1467 c5 -17 -17 -64 -37 -78 -5 -3 -1 -9 8 -13 11 -4 15 -13
12 -26 -3 -11 -1 -23 4 -26 5 -3 9 0 9 6 0 6 4 9 9 6 5 -4 7 4 3 16 -3 13 -1
19 5 15 6 -4 14 0 17 9 3 8 2 12 -4 9 -6 -3 -10 -3 -11 2 0 4 -2 17 -4 28 -2
11 0 22 5 25 4 3 1 14 -7 25 -13 17 -15 17 -9 2z"/>
<path d="M1200 1440 c-9 -23 -4 -53 12 -67 15 -13 18 -14 18 -2 0 8 -4 19 -9
25 -5 5 -11 18 -14 29 -3 11 -6 18 -7 15z"/>
<path d="M1150 1403 c0 -5 9 -18 19 -30 10 -11 21 -27 22 -35 3 -13 6 -13 16
-3 9 9 4 19 -23 44 -19 18 -34 29 -34 24z"/>
<path d="M1736 1348 c-9 -12 -16 -29 -16 -36 0 -10 -4 -10 -16 2 -17 18 -28
21 -19 6 4 -6 -7 -15 -24 -21 -17 -6 -28 -15 -25 -20 3 -5 -2 -6 -11 -3 -10 4
-22 -1 -30 -12 -9 -11 -14 -14 -15 -6 0 15 -45 9 -66 -9 -9 -7 -14 -8 -13 -3
4 23 -2 26 -16 8 -8 -10 -15 -14 -15 -7 0 7 -6 10 -13 7 -7 -2 -29 2 -48 10
-19 8 -30 15 -25 16 12 0 -14 30 -26 30 -6 0 -4 -7 3 -16 12 -14 11 -16 -6
-13 -11 3 -20 11 -21 19 -2 35 -5 41 -14 35 -5 -3 -10 -15 -10 -26 0 -11 -4
-18 -10 -14 -5 3 -8 11 -6 18 1 7 1 9 -1 4 -3 -4 -10 -4 -16 0 -7 4 -8 0 -4
-11 4 -10 7 -20 7 -22 0 -2 9 -4 20 -4 11 0 20 -4 20 -10 0 -5 12 -13 28 -16
15 -4 36 -12 47 -17 27 -15 40 -17 112 -21 38 -2 73 2 87 9 14 7 27 11 30 7 3
-3 6 -1 6 4 0 5 9 10 19 11 35 3 101 52 102 76 1 17 2 18 6 4 2 -9 9 -15 14
-12 5 4 5 13 -1 24 -5 10 -6 21 -3 25 3 3 1 6 -5 6 -6 0 -18 -10 -26 -22z"/>
<path d="M483 1178 c-18 -6 -33 -14 -33 -19 0 -12 42 -1 59 16 8 8 13 15 11
14 -3 -1 -20 -6 -37 -11z"/>
<path d="M880 863 c24 -41 166 -220 183 -230 6 -3 -23 36 -64 88 -41 52 -88
113 -103 137 -35 52 -46 55 -16 5z"/>
<path d="M1425 759 c-20 -50 -59 -150 -86 -222 -31 -86 -53 -131 -61 -129 -7
2 -24 13 -38 25 -14 12 -10 6 7 -13 47 -49 46 -49 154 247 20 53 40 93 47 93
9 0 11 7 7 20 -3 10 -1 29 5 40 7 12 10 24 7 26 -2 2 -21 -37 -42 -87z"/>
<path d="M1532 798 c-23 -23 -11 -78 17 -78 25 0 41 20 40 50 l0 25 -12 -25
c-13 -29 -27 -41 -39 -34 -13 8 -9 36 9 56 18 20 4 25 -15 6z"/>
<path d="M1450 605 c7 -9 16 -12 19 -8 3 4 15 10 26 11 36 7 29 12 -15 12 -37
0 -41 -2 -30 -15z"/>
<path d="M2046 601 c-8 -13 6 -42 29 -61 16 -13 16 -11 1 25 -20 47 -22 49
-30 36z"/>
<path d="M1977 537 c-9 -19 -33 -57 -52 -86 -19 -28 -31 -51 -26 -51 18 0 109
155 98 166 -2 3 -12 -11 -20 -29z"/>
<path d="M2673 315 c0 -110 1 -113 6 -40 3 44 3 98 0 120 -4 22 -6 -13 -6 -80z"/>
<path d="M2673 130 c0 -36 2 -50 4 -32 2 17 2 47 0 65 -2 17 -4 3 -4 -33z"/>
</g>
</svg>
