<?xml version="1.0" standalone="no"?>
<!DOCTYPE svg PUBLIC "-//W3C//DTD SVG 20010904//EN"
 "http://www.w3.org/TR/2001/REC-SVG-20010904/DTD/svg10.dtd">
<svg version="1.0" xmlns="http://www.w3.org/2000/svg"
 width="300.000000pt" height="276.000000pt" viewBox="0 0 300.000000 276.000000"
 preserveAspectRatio="xMidYMid meet">
<metadata>
Created by potrace 1.10, written by Peter Selinger 2001-2011
</metadata>
<g transform="translate(0.000000,276.000000) scale(0.100000,-0.100000)"
fill="#000000" stroke="none">
<path d="M2976 2733 c16 -12 16 -13 -7 -13 -31 0 -45 -10 -54 -38 -8 -27 17
-62 45 -62 9 0 21 -5 28 -12 9 -9 12 -8 12 8 0 13 -11 25 -32 35 -18 8 -33 21
-33 29 0 10 10 15 33 15 28 0 32 3 32 27 0 21 -5 26 -21 25 -19 -1 -19 -2 -3
-14z"/>
<path d="M1274 2616 c-61 -27 -121 -127 -144 -240 -7 -33 -20 -79 -31 -103
-24 -57 -95 -160 -118 -172 -10 -6 -62 -17 -117 -26 -119 -19 -247 -51 -286
-71 -15 -8 -43 -28 -62 -45 -19 -17 -58 -43 -85 -58 -56 -30 -176 -164 -165
-183 4 -7 3 -8 -4 -4 -7 4 -22 -14 -38 -46 -38 -73 -45 -187 -16 -244 26 -52
77 -219 97 -323 26 -130 105 -302 204 -441 114 -160 134 -201 139 -272 4 -59
2 -68 -18 -85 -42 -35 -136 -189 -170 -279 -15 -38 12 -30 29 8 26 59 83 150
89 143 4 -4 12 -21 18 -38 11 -29 12 -27 7 23 -4 43 0 63 17 95 l21 40 -7 -40
c-9 -50 -12 -165 -4 -165 3 0 11 19 18 41 13 42 8 65 -8 39 -8 -12 -10 -11
-10 5 0 11 4 26 9 34 7 11 13 6 26 -18 13 -26 14 -39 6 -63 -13 -38 -14 -61
-2 -54 5 3 12 22 15 41 l7 35 27 -17 c26 -17 27 -17 12 1 -14 18 -13 19 8 14
12 -4 22 -2 22 4 0 6 -12 8 -26 5 -22 -4 -30 2 -55 42 -28 44 -38 91 -20 91
15 0 23 117 11 161 -7 23 -25 59 -41 79 -19 23 -27 43 -23 53 4 11 1 17 -8 17
-16 0 -99 104 -102 127 -1 7 -12 24 -25 39 -20 23 -21 28 -7 48 14 22 13 23
-7 19 -16 -3 -27 4 -39 25 -10 17 -18 37 -18 45 0 18 37 30 43 13 2 -6 7 -8
11 -5 4 4 -7 17 -23 29 -28 19 -30 19 -25 3 5 -16 4 -15 -10 2 -8 11 -20 26
-26 33 -6 6 -7 12 -3 12 4 0 1 4 -7 10 -12 7 -11 10 5 16 11 5 20 3 23 -4 2
-7 11 -12 20 -12 9 0 -4 14 -30 30 -28 18 -47 36 -46 47 0 10 -7 54 -16 98
-20 102 -21 98 10 91 37 -10 21 10 -20 24 -27 8 -33 15 -29 30 3 11 0 27 -7
35 -7 8 -10 22 -6 30 3 9 2 14 -3 11 -5 -3 -12 1 -15 10 -3 9 -2 12 5 8 6 -3
3 9 -6 27 -26 49 -32 142 -11 173 9 14 16 33 16 42 0 9 18 33 40 54 22 21 40
44 40 51 0 11 2 11 10 -1 8 -12 10 -9 10 12 0 19 8 32 28 42 15 8 21 15 14 16
-7 0 3 16 22 35 32 32 47 40 69 36 4 0 7 4 7 9 0 6 5 10 11 10 6 0 25 11 42
24 50 37 55 38 75 16 18 -19 20 -19 50 -4 34 16 57 42 29 31 -9 -3 -19 -2 -21
2 -9 14 131 64 183 65 27 1 47 4 44 9 -7 12 12 8 26 -5 10 -11 12 -10 9 1 -2
8 9 17 25 22 24 6 26 5 16 -7 -9 -12 -6 -14 19 -14 24 0 30 4 26 15 -4 8 -11
15 -18 15 -6 1 4 9 23 19 19 10 36 26 37 35 1 9 -2 14 -7 10 -5 -3 -7 -9 -4
-14 3 -4 -2 -11 -10 -14 -12 -4 -13 -2 -6 12 19 32 46 59 66 66 16 6 17 9 5
16 -14 9 -7 14 13 11 4 0 7 4 7 10 0 5 4 8 9 4 5 -3 12 -1 15 4 3 5 -4 11 -15
14 -24 6 -17 27 9 26 9 0 12 -3 5 -5 -7 -3 -2 -14 13 -31 19 -21 21 -29 13
-45 -8 -15 -8 -19 0 -14 6 4 11 2 11 -3 0 -6 3 -10 8 -10 36 6 52 -3 53 -28 1
-22 3 -20 9 12 5 22 13 53 19 69 7 16 9 31 7 34 -3 2 -8 -7 -11 -21 -4 -15
-14 -32 -22 -39 -13 -11 -18 -10 -27 6 -6 10 -23 34 -38 53 -20 25 -28 47 -28
75 0 41 24 88 45 88 15 0 15 31 0 42 -5 4 0 8 12 8 12 0 25 5 28 10 3 6 21 10
38 11 30 1 31 1 7 8 -15 5 -38 3 -57 -5 -27 -11 -31 -10 -26 2 3 8 9 14 15 14
5 0 7 4 4 9 -3 5 2 18 12 30 14 18 29 22 82 22 36 1 85 -4 110 -10 25 -7 65
-17 90 -22 25 -6 50 -11 55 -13 41 -9 132 -83 154 -124 16 -31 25 -22 16 18
-8 37 -90 122 -145 150 -89 45 -261 64 -326 36z"/>
<path d="M1456 2507 c-15 -16 -16 -19 -3 -14 9 3 31 -5 52 -19 37 -25 37 -21
1 29 -23 32 -25 32 -50 4z"/>
<path d="M1353 2509 c-6 -6 -26 -15 -45 -19 -29 -8 -26 -8 22 -8 63 1 82 6 74
19 -3 5 -10 7 -15 4 -5 -4 -9 -1 -9 4 0 14 -13 14 -27 0z"/>
<path d="M1231 2457 c-1 -16 6 -18 47 -16 26 1 52 6 57 10 6 4 21 9 35 12 46
8 -30 7 -82 -2 -32 -5 -49 -4 -52 3 -2 6 -5 3 -5 -7z"/>
<path d="M1470 2433 c-38 -7 -45 -19 -30 -48 16 -30 18 -30 49 -5 18 15 21 23
12 33 -6 8 -8 17 -4 20 3 4 4 6 2 6 -2 -1 -15 -4 -29 -6z"/>
<path d="M1514 2428 c-3 -4 -1 -8 5 -8 6 0 8 -7 4 -16 -6 -16 12 -34 32 -34 6
1 2 5 -7 11 -22 12 -23 29 -2 29 8 0 13 -4 10 -8 -2 -4 7 -9 21 -10 14 -1 32
-7 38 -12 9 -8 14 -6 19 5 3 9 2 13 -4 10 -5 -3 -17 -1 -27 4 -10 5 -26 12
-36 15 -10 3 -16 9 -13 14 2 4 -4 8 -15 8 -11 0 -23 -4 -25 -8z"/>
<path d="M1368 2420 c-2 -6 -20 -16 -40 -23 -35 -12 -35 -14 -22 -37 11 -21
13 -22 14 -6 0 10 8 25 18 32 20 15 36 18 28 5 -3 -5 4 -11 16 -14 16 -4 18
-3 9 6 -16 16 -14 27 5 27 8 0 12 5 9 10 -8 13 -32 13 -37 0z"/>
<path d="M1191 2396 c-7 -8 -13 -29 -15 -48 -2 -18 -1 -23 1 -12 2 12 12 29
22 38 17 16 19 15 23 -8 4 -19 0 -27 -15 -32 -21 -7 -21 -7 2 -25 13 -11 19
-19 15 -19 -5 0 2 -7 14 -16 13 -9 25 -14 27 -12 7 7 -7 48 -16 48 -5 0 -7 10
-4 23 8 29 -10 77 -29 77 -7 0 -19 -6 -25 -14z"/>
<path d="M1736 2339 c3 -24 10 -48 16 -54 14 -13 4 73 -11 88 -6 6 -8 -5 -5
-34z"/>
<path d="M1337 2350 c-4 -15 0 -20 14 -20 12 0 19 7 19 20 0 11 -6 20 -14 20
-7 0 -16 -9 -19 -20z"/>
<path d="M1588 2344 c18 -8 31 -18 28 -23 -3 -5 1 -14 9 -21 8 -7 15 -19 15
-27 0 -8 5 -11 10 -8 6 3 10 2 10 -3 0 -15 32 -24 44 -12 11 11 -31 63 -45 54
-5 -3 -9 1 -9 9 0 23 -34 47 -66 46 l-29 -1 33 -14z"/>
<path d="M2923 2339 c21 -5 46 -17 55 -26 16 -16 17 -15 20 2 5 25 -15 35 -68
34 l-45 -1 38 -9z"/>
<path d="M1327 2306 c-3 -7 -4 -22 -3 -32 2 -11 0 -21 -4 -24 -4 -3 -11 -16
-15 -28 -6 -22 -5 -23 14 -13 18 10 33 54 33 96 -1 16 -19 17 -25 1z"/>
<path d="M2890 2300 c-21 -13 -2 -29 41 -36 41 -6 73 10 49 25 -9 7 -19 6 -28
-2 -11 -9 -17 -7 -27 6 -14 20 -15 20 -35 7z"/>
<path d="M1546 2275 c17 -25 31 -35 18 -12 -4 6 6 -2 22 -19 16 -17 35 -29 43
-26 8 3 11 0 7 -7 -4 -6 -3 -11 2 -11 10 0 22 23 22 41 0 5 -7 9 -16 9 -8 0
-32 11 -52 25 -20 14 -42 25 -50 25 -9 0 -8 -6 4 -25z"/>
<path d="M1728 2213 c-20 -5 -24 -48 -8 -73 8 -12 10 -9 10 13 0 15 7 30 15
33 8 4 15 12 15 20 0 14 -3 15 -32 7z"/>
<path d="M1403 2187 c4 -10 0 -18 -12 -22 -17 -5 -25 -35 -9 -35 4 0 8 7 8 15
0 14 10 15 60 6 3 -1 -2 -6 -10 -11 -9 -6 -11 -10 -3 -10 7 0 10 -7 7 -17 -5
-15 -4 -16 5 -3 9 13 11 13 11 0 0 -13 1 -13 10 0 8 12 10 10 10 -8 0 -13 -4
-20 -10 -17 -5 3 -10 1 -10 -4 0 -14 13 -14 28 1 9 9 12 9 12 1 0 -7 -4 -14
-10 -18 -5 -3 -6 -13 -3 -22 5 -11 3 -14 -6 -8 -9 5 -12 2 -9 -10 6 -32 23
-26 39 13 15 37 15 39 -6 66 -13 16 -28 25 -34 22 -6 -4 -11 -1 -11 7 0 7 -14
26 -32 42 -18 16 -29 21 -25 12z"/>
<path d="M1137 2176 c-4 -10 -7 -26 -7 -37 0 -10 -6 -19 -12 -19 -7 0 -5 -5 5
-11 16 -9 17 -13 4 -27 -20 -24 -28 -50 -17 -57 9 -6 14 9 11 29 -1 5 7 6 19
3 13 -3 20 0 21 9 4 45 3 49 -16 46 -20 -3 -20 -2 0 14 15 12 16 18 7 21 -10
4 -8 9 5 20 10 8 13 12 6 9 -6 -4 -13 -1 -15 6 -3 7 -7 5 -11 -6z"/>
<path d="M1078 2174 c-4 -3 -2 -18 2 -34 10 -35 6 -40 -34 -41 l-31 -1 33 -11
c27 -8 36 -7 43 4 16 26 5 101 -13 83z"/>
<path d="M1193 2113 c-10 -3 -9 -9 3 -21 11 -11 13 -17 5 -20 -6 -2 -11 -10
-11 -18 0 -7 6 -11 14 -8 9 4 13 16 10 36 -4 36 -5 37 -21 31z"/>
<path d="M1623 2083 c5 -21 1 -23 -33 -23 -33 0 -41 -5 -59 -35 -11 -19 -26
-35 -32 -35 -6 0 -9 -9 -6 -20 3 -10 0 -21 -7 -24 -8 -3 -8 -5 0 -5 10 -1 35
25 85 87 25 31 109 -2 109 -43 0 -12 -5 -11 -22 6 -24 22 -68 43 -75 35 -3 -2
9 -12 25 -20 17 -9 39 -27 50 -40 23 -30 32 -24 32 19 0 22 -9 41 -27 60 -23
23 -24 26 -6 17 12 -7 23 -17 25 -23 2 -7 12 -7 32 1 29 11 29 11 8 26 -12 8
-36 16 -54 17 -18 1 -37 7 -41 12 -5 6 -7 0 -4 -12z"/>
<path d="M2314 2078 c-9 -9 -35 -19 -58 -21 -29 -2 -20 -4 29 -6 69 -2 137
-18 90 -21 -26 -1 53 -45 110 -61 22 -6 48 -18 58 -26 37 -34 16 11 -33 67
-27 31 -47 60 -43 64 6 6 -33 11 -74 8 -13 0 -23 2 -23 6 0 15 -41 7 -56 -10z
m104 -24 c12 -8 22 -12 22 -8 0 4 11 -5 25 -20 32 -35 31 -37 -5 -25 -16 6
-32 18 -35 28 -3 9 -17 22 -33 28 -15 6 -20 11 -12 12 9 1 26 -6 38 -15z"/>
<path d="M1062 2044 c2 -21 -1 -29 -12 -29 -8 0 -15 5 -15 12 0 6 -4 15 -9 20
-4 4 -7 -1 -4 -12 2 -11 14 -25 27 -32 14 -6 29 -20 34 -30 10 -16 9 -17 -8
-3 -10 8 -32 15 -49 16 -28 2 -29 1 -11 -12 10 -8 24 -14 31 -14 6 0 22 -8 35
-18 30 -23 63 -36 53 -21 -3 6 9 27 27 47 l34 37 -37 -34 c-35 -33 -56 -30
-23 2 13 13 13 16 0 27 -12 10 -15 9 -15 -6 0 -11 -5 -26 -11 -34 -9 -13 -10
-12 -5 2 3 10 -1 23 -8 31 -7 7 -13 26 -12 42 0 15 -5 30 -12 33 -9 3 -12 -5
-10 -24z"/>
<path d="M1975 2060 c-52 -6 -46 -7 53 -8 92 -2 112 -5 112 -17 0 -8 -5 -15
-12 -15 -13 0 -68 -49 -68 -61 0 -4 13 6 29 22 16 16 38 29 49 29 29 0 112
-39 119 -56 3 -8 13 -14 22 -14 14 0 14 -2 1 -10 -9 -6 -20 -5 -30 3 -13 10
-13 10 -1 -5 10 -13 18 -15 31 -8 28 15 52 12 105 -11 29 -13 61 -19 83 -17
27 3 36 0 39 -13 3 -10 11 -15 19 -12 10 3 12 0 8 -10 -3 -8 -1 -18 5 -22 6
-3 11 -14 11 -23 0 -13 -2 -14 -9 -4 -7 11 -10 10 -15 -3 -9 -25 -7 -47 4 -40
6 3 10 -2 10 -12 1 -10 7 -35 14 -56 14 -37 5 -61 -11 -33 -6 10 -13 12 -23 6
-19 -11 -10 -19 23 -22 28 -2 32 -16 18 -53 -7 -19 -9 -18 -22 5 -7 14 -12 28
-11 32 1 4 -5 5 -13 2 -9 -4 -15 0 -15 9 0 8 -10 25 -23 38 -13 13 -32 39 -42
57 -17 27 -27 34 -55 34 -3 1 -17 -2 -32 -6 -17 -4 -28 -2 -28 4 0 5 7 10 16
10 8 0 13 4 9 9 -3 5 -1 12 5 16 17 11 11 32 -11 38 -16 4 -18 3 -9 -8 32 -39
-36 -55 -232 -55 -111 0 -158 -3 -158 -11 0 -8 37 -10 131 -7 110 4 129 3 114
-8 -10 -7 -23 -15 -29 -18 -23 -10 20 -27 54 -21 19 3 63 8 98 12 l62 6 0 -35
c0 -20 9 -46 20 -61 11 -14 20 -28 20 -32 0 -3 -20 -34 -44 -68 -45 -63 -89
-104 -158 -145 -47 -29 -79 -89 -76 -147 1 -49 18 -88 18 -43 0 14 3 34 7 44
4 12 3 15 -5 10 -8 -5 -12 1 -12 15 0 19 2 20 17 8 15 -13 15 -12 4 9 -7 13
-10 26 -7 30 3 3 6 0 6 -6 0 -7 5 -12 11 -12 6 0 8 9 4 21 -5 14 -3 19 3 15 6
-3 13 0 16 6 3 7 3 1 0 -14 -4 -17 -2 -28 5 -28 6 0 11 9 11 20 0 11 4 20 10
20 5 0 20 16 33 35 13 19 37 45 53 57 l29 23 -17 -27 c-13 -19 -15 -29 -6 -34
6 -4 8 -3 4 4 -3 6 -2 13 4 17 6 3 17 22 25 41 8 20 19 33 24 30 5 -3 11 9 15
26 6 29 7 30 20 13 22 -30 39 -9 18 23 l-17 27 29 -23 c33 -25 72 -28 100 -7
10 8 23 12 29 8 6 -3 7 -1 3 5 -4 7 -3 12 2 12 5 0 7 35 5 83 -3 45 -4 110 -4
145 1 41 -4 70 -14 86 -15 23 -62 49 -81 45 -21 -5 -65 14 -60 27 3 8 0 11 -9
8 -8 -3 -29 1 -46 10 -18 9 -39 16 -48 16 -14 0 -14 2 -1 10 12 8 11 10 -7 10
-35 0 -36 -18 -1 -29 55 -18 134 -60 115 -61 -17 0 -87 26 -144 53 -12 5 -20
14 -17 18 5 9 -35 33 -43 25 -3 -3 -11 0 -19 7 -7 7 -19 17 -27 23 -18 16
-118 23 -192 14z m431 -339 c50 -51 84 -91 84 -101 0 -6 8 -10 19 -10 10 0 21
-9 24 -20 4 -16 -1 -21 -29 -26 -19 -3 -40 -4 -47 -1 -7 3 -26 36 -41 73 -39
97 -40 98 -72 105 l-29 7 31 1 c22 1 40 -8 60 -28z"/>
<path d="M1870 2040 c-16 -31 -12 -230 6 -257 15 -24 44 -31 44 -12 0 5 -4 8
-9 5 -5 -3 -14 0 -20 7 -14 17 -13 247 1 264 7 9 7 13 0 13 -6 0 -16 -9 -22
-20z"/>
<path d="M957 2038 c-6 -21 4 -48 19 -48 19 0 18 19 -2 27 -11 4 -12 8 -4 13
8 5 9 10 2 14 -6 3 -12 0 -15 -6z"/>
<path d="M2965 2023 c-5 -10 -8 -21 -7 -24 1 -4 -3 -21 -8 -38 -5 -17 -5 -31
-1 -31 9 0 35 99 28 106 -2 3 -8 -3 -12 -13z"/>
<path d="M1896 2013 c-4 -9 0 -23 9 -32 13 -14 17 -14 31 1 9 9 14 24 11 32
-8 21 -43 20 -51 -1z"/>
<path d="M1963 2014 c-7 -19 20 -49 36 -40 6 4 16 16 22 28 7 13 7 18 1 14 -6
-3 -13 -2 -17 4 -9 15 -35 12 -42 -6z"/>
<path d="M916 1983 c27 -41 27 -57 -3 -61 -10 -2 -24 -13 -29 -25 -6 -12 -9
-17 -8 -12 1 6 -10 11 -24 12 -13 0 -35 12 -48 25 -38 38 -55 50 -61 44 -4 -3
2 -12 12 -19 17 -13 17 -14 1 -20 -10 -4 -27 -2 -38 4 -25 13 -35 5 -18 -16
14 -17 47 -20 52 -4 5 14 38 0 38 -16 0 -7 26 -25 57 -40 32 -15 74 -40 94
-56 20 -16 39 -29 42 -29 3 0 -2 18 -10 40 -9 22 -19 37 -23 35 -4 -2 -5 7 -2
20 2 14 -1 32 -8 40 -8 9 -8 15 -2 15 23 0 16 46 -11 73 -38 37 -41 34 -11
-10z m19 -83 c3 -6 3 -20 0 -31 -6 -17 -9 -19 -16 -8 -7 11 -9 10 -9 -3 0 -10
-4 -18 -9 -18 -17 0 -5 33 15 41 17 7 17 8 2 8 -10 1 -18 6 -18 11 0 13 27 13
35 0z"/>
<path d="M829 1993 c-1 -5 -1 -11 0 -15 0 -5 -5 -8 -13 -8 -8 0 -18 -4 -21
-10 -4 -6 10 -7 39 -4 31 5 51 2 61 -6 17 -14 31 -8 20 9 -3 6 -17 11 -30 11
-12 0 -25 7 -29 15 -6 15 -25 21 -27 8z"/>
<path d="M1580 1976 c0 -8 5 -18 10 -21 13 -8 13 -65 -1 -65 -6 0 -8 -9 -4
-20 9 -28 -4 -80 -19 -80 -7 0 -33 15 -57 33 -72 55 -90 63 -105 43 -6 -10
-21 -18 -32 -19 -11 0 -18 -6 -15 -13 2 -7 -2 -18 -10 -25 -10 -9 -13 -26 -10
-51 4 -28 1 -40 -16 -54 -22 -19 -29 -64 -10 -64 12 0 31 -20 49 -52 8 -13 6
-20 -11 -28 -25 -14 -39 -1 -82 70 -17 29 -27 38 -27 26 0 -18 -1 -18 -20 -1
-11 10 -20 28 -20 40 0 13 -8 32 -17 44 l-18 21 -17 -30 c-14 -25 -15 -30 -3
-30 8 0 14 5 13 11 -2 6 3 14 10 16 8 3 12 -6 12 -29 0 -34 21 -62 61 -84 16
-9 89 -99 89 -110 0 -3 -4 -2 -10 1 -15 9 -12 -5 10 -50 21 -42 27 -35 10 11
-6 16 -7 30 -2 33 5 3 19 25 31 48 24 48 47 69 39 35 -4 -12 -2 -22 3 -22 10
0 10 -1 14 51 2 33 0 35 -21 31 -13 -2 -24 -8 -24 -13 0 -5 -16 -1 -35 8 -38
18 -46 42 -16 50 19 5 37 46 27 62 -3 4 1 8 9 8 17 0 20 -23 5 -32 -16 -10
-12 -35 5 -35 9 0 15 6 14 13 -1 6 2 21 6 31 6 14 2 24 -15 38 l-23 19 34 29
c40 34 49 36 49 11 0 -10 8 -21 18 -25 9 -3 35 -16 57 -30 63 -37 82 -40 95
-15 7 12 14 47 16 77 2 34 11 63 21 75 14 16 15 21 4 25 -7 2 -23 15 -34 28
-23 27 -37 31 -37 10z"/>
<path d="M2133 1980 c-48 -19 -57 -87 -17 -127 20 -20 31 -24 57 -19 74 15 73
64 -1 80 -34 8 -42 14 -42 33 0 23 23 32 34 14 7 -11 66 -20 66 -10 0 12 -42
39 -60 38 -8 0 -25 -4 -37 -9z m29 -95 c22 0 33 -5 33 -15 1 -16 -13 -30 -31
-30 -20 0 -67 47 -59 60 6 9 9 9 16 -1 4 -7 23 -13 41 -14z"/>
<path d="M973 1960 c-6 -67 -3 -91 17 -143 14 -37 26 -55 32 -49 6 6 1 22 -12
45 -22 37 -37 127 -21 127 5 0 7 9 4 20 -3 11 -8 20 -12 20 -4 0 -7 -9 -8 -20z"/>
<path d="M1934 1955 c-9 -23 4 -47 23 -43 22 4 30 38 11 49 -19 13 -28 11 -34
-6z"/>
<path d="M1023 1932 c-20 -3 -22 -8 -18 -48 5 -48 20 -84 35 -84 6 0 10 -5 10
-11 0 -18 44 -54 68 -56 32 -2 27 5 -14 22 -22 9 -33 19 -28 26 4 8 3 9 -4 5
-7 -4 -14 4 -18 20 -4 15 -9 21 -14 15 -11 -18 -31 60 -20 78 8 13 9 12 10 -8
0 -14 16 -39 40 -62 22 -22 40 -46 40 -54 0 -9 9 -15 23 -14 12 0 16 3 9 6
-17 7 -44 61 -37 73 3 6 14 10 23 10 14 0 13 2 -3 14 -11 7 -35 12 -52 11 -37
-2 -46 21 -13 33 18 7 19 8 2 17 -9 6 -27 9 -39 7z"/>
<path d="M2051 1904 c-1 -32 5 -46 30 -72 17 -18 41 -32 53 -32 17 1 15 4 -11
15 -35 15 -53 42 -64 95 l-7 35 -1 -41z"/>
<path d="M1524 1908 c-10 -13 -12 -18 -5 -11 15 13 44 6 35 -8 -3 -5 0 -9 6
-9 7 0 9 7 6 16 -3 9 -6 20 -6 25 0 16 -16 10 -36 -13z"/>
<path d="M2340 1880 c0 -5 9 -10 21 -10 11 0 18 -4 15 -9 -3 -4 6 -13 19 -19
15 -7 25 -20 25 -32 0 -11 3 -19 8 -18 4 1 17 -3 29 -10 29 -16 53 -5 53 23 0
16 -8 26 -22 31 -12 3 -28 13 -35 20 -8 7 -20 11 -28 8 -8 -3 -22 1 -30 10
-18 18 -55 22 -55 6z"/>
<path d="M2246 1848 c-9 -12 -26 -28 -38 -35 -13 -7 -17 -12 -10 -13 7 0 29
16 50 35 20 19 32 35 25 35 -6 0 -19 -10 -27 -22z"/>
<path d="M450 1840 l-45 -7 40 -2 c30 -1 36 -4 25 -11 -13 -9 -13 -10 0 -10 8
0 22 5 30 10 11 7 11 10 2 10 -7 0 -10 5 -7 10 3 6 5 9 3 8 -2 0 -23 -4 -48
-8z"/>
<path d="M582 1828 c10 -10 25 -18 33 -18 9 0 29 -7 44 -15 16 -8 31 -11 35
-8 3 4 6 1 6 -5 0 -7 3 -11 8 -10 21 4 47 -20 68 -66 13 -28 24 -44 24 -36 0
8 -7 28 -15 43 -15 30 -10 61 9 50 6 -4 5 1 -3 11 -21 25 -50 39 -64 29 -16
-11 -35 -9 -72 7 -26 11 -27 14 -10 18 44 9 33 19 -22 18 -56 -1 -57 -2 -41
-18z"/>
<path d="M796 1841 c-3 -5 2 -15 12 -22 16 -13 16 -13 2 5 -14 18 -14 19 5 12
11 -5 28 -11 37 -13 10 -3 15 -9 12 -14 -3 -5 3 -6 12 -2 14 5 10 10 -22 24
-47 21 -51 22 -58 10z"/>
<path d="M557 1782 c-10 -10 -14 -22 -10 -25 3 -4 -2 -7 -11 -7 -12 0 -16 -5
-12 -16 3 -9 6 -16 6 -17 0 -1 29 0 65 1 76 4 83 17 32 56 -40 31 -49 32 -70
8z m65 -21 c-8 -4 -12 -12 -10 -17 1 -5 -15 -10 -37 -12 -39 -3 -39 -3 -21 17
12 13 31 21 50 21 21 0 27 -3 18 -9z"/>
<path d="M854 1768 c-4 -6 -3 -8 3 -5 5 3 27 2 47 -4 40 -11 61 -4 36 11 -21
14 -77 12 -86 -2z"/>
<path d="M700 1739 c0 -15 -5 -19 -15 -15 -8 3 -15 1 -15 -4 0 -6 -12 -10 -27
-10 -40 0 -23 -9 22 -11 42 -2 85 -22 85 -40 0 -13 -53 -3 -94 18 -25 13 -31
13 -40 1 -6 -8 -26 -20 -44 -28 -29 -11 -35 -11 -44 1 -8 11 -9 10 -4 -4 3
-11 0 -20 -9 -23 -8 -4 -15 -16 -15 -28 0 -20 1 -20 13 3 28 55 200 69 266 21
41 -28 34 -37 -11 -14 -74 40 -248 13 -248 -39 0 -6 6 -2 14 9 8 10 18 16 22
12 4 -4 2 -13 -4 -20 -8 -10 4 -13 56 -15 36 -1 70 -7 76 -13 13 -13 46 -13
46 0 0 6 8 10 18 10 14 0 15 2 2 10 -9 6 -10 10 -3 10 15 0 35 -35 26 -44 -3
-3 -1 -6 5 -6 7 0 12 7 12 15 0 12 9 10 40 -10 22 -14 40 -22 40 -19 0 4 7 1
15 -6 12 -10 13 -15 4 -21 -13 -8 -59 9 -59 23 0 4 -7 8 -16 8 -16 0 -15 -25
2 -25 5 -1 18 -6 30 -12 11 -6 32 -10 47 -9 15 2 27 -1 27 -5 0 -5 -6 -9 -12
-10 -7 0 -4 -4 7 -9 37 -16 45 -11 23 15 -11 13 -26 22 -31 18 -6 -3 -7 -2 -4
4 4 6 -3 27 -13 49 -11 21 -20 46 -20 56 0 22 23 24 40 3 8 -10 9 -15 2 -15
-6 0 0 -12 15 -26 14 -14 26 -24 28 -22 2 2 -10 28 -26 58 -15 30 -28 49 -29
43 0 -22 -16 -14 -17 8 -2 26 -23 51 -23 28 0 -8 6 -21 13 -28 10 -11 9 -13
-4 -8 -13 4 -15 1 -12 -14 3 -10 0 -19 -6 -19 -6 0 -11 6 -11 13 0 9 -2 9 -8
0 -5 -8 -14 -4 -28 12 -12 13 -19 27 -16 30 3 3 -3 5 -12 5 -10 0 -16 6 -14
12 3 7 -6 21 -19 31 -15 12 -22 25 -18 37 3 11 0 20 -10 24 -10 4 -15 -1 -15
-15z m63 -141 c12 -7 34 -12 50 -13 15 0 27 -5 28 -10 0 -6 6 -20 14 -31 13
-20 9 -19 -38 7 -60 32 -121 46 -131 30 -9 -14 -67 -14 -103 0 -26 10 -27 12
-8 19 31 13 164 11 188 -2z"/>
<path d="M985 1738 c4 -13 9 -35 12 -51 8 -42 27 -47 20 -5 l-5 36 46 -26 c26
-14 55 -32 64 -40 15 -13 17 -12 15 8 -1 12 -13 30 -27 39 -44 31 -50 33 -44
17 10 -26 -12 -18 -43 14 -33 36 -48 39 -38 8z"/>
<path d="M789 1743 c18 -7 61 -45 61 -53 0 -3 -9 -16 -20 -28 -11 -11 -16 -23
-11 -26 4 -3 14 6 21 19 7 14 19 25 26 25 9 0 6 11 -9 34 -12 18 -25 29 -28
24 -4 -6 -9 -6 -13 1 -4 6 -15 11 -24 10 -13 0 -13 -2 -3 -6z"/>
<path d="M871 1724 c14 -16 39 -59 55 -96 15 -37 29 -66 30 -65 1 1 -2 25 -7
52 -5 28 -7 66 -4 85 5 32 4 33 -9 16 -8 -10 -20 -15 -26 -11 -9 6 -9 10 1 17
11 8 10 9 -2 5 -9 -3 -27 2 -40 10 -23 16 -23 15 2 -13z"/>
<path d="M2473 1743 c-16 -6 0 -39 26 -52 16 -9 18 -6 18 27 l1 37 -11 -30
-11 -30 -6 26 c-3 15 -10 24 -17 22z"/>
<path d="M1415 1723 c-16 -16 -16 -17 1 -30 25 -18 28 -17 41 17 10 27 9 30
-7 30 -10 0 -26 -8 -35 -17z"/>
<path d="M1470 1710 c-15 -28 -13 -34 25 -54 19 -10 32 -22 30 -27 -3 -4 0
-11 6 -14 7 -5 9 4 7 26 -2 29 -7 35 -30 37 -43 5 -33 22 13 22 34 0 39 -3 30
-13 -6 -8 -8 -16 -5 -20 3 -3 7 -25 9 -49 1 -23 3 -49 4 -55 0 -7 5 -13 11
-13 6 0 8 27 5 73 -5 66 -4 70 10 53 8 -11 15 -37 15 -57 0 -21 5 -39 12 -41
7 -3 9 -14 4 -33 -6 -23 -9 -26 -17 -14 -7 11 -9 10 -8 -6 1 -11 4 -31 9 -45
l7 -25 10 25 c6 14 13 49 17 79 6 44 4 57 -11 73 -17 19 -17 19 10 7 15 -7 27
-19 27 -28 0 -42 -23 -149 -36 -168 -19 -30 -4 -29 18 1 14 19 29 106 29 168
0 15 2 15 18 -1 18 -18 35 -51 33 -62 -1 -3 10 -11 24 -17 23 -11 24 -10 19
16 -3 15 -2 21 1 14 3 -6 10 -10 15 -7 5 4 6 -1 3 -9 -7 -19 35 -66 60 -66 20
0 20 1 -2 16 -12 8 -19 20 -16 26 5 7 2 8 -6 3 -10 -6 -12 -4 -7 7 3 9 -3 24
-14 34 -10 9 -19 13 -19 8 0 -5 -5 -1 -11 9 -6 9 -14 15 -19 12 -4 -3 -11 2
-14 11 -3 8 -10 13 -15 10 -5 -3 -11 1 -15 9 -3 8 -12 15 -21 15 -8 0 -15 5
-15 10 0 6 -6 10 -12 8 -7 -1 -33 9 -58 24 -25 14 -62 31 -83 36 -32 9 -38 8
-47 -8z"/>
<path d="M501 1676 c0 -24 2 -27 8 -12 4 10 20 24 36 30 l29 12 -37 0 c-35 0
-37 -2 -36 -30z"/>
<path d="M393 1663 c20 -5 22 -19 5 -27 -7 -4 -3 -4 10 -2 15 3 28 -4 42 -21
22 -29 25 -26 10 9 -11 22 -53 49 -74 47 -6 -1 -3 -3 7 -6z"/>
<path d="M970 1638 c0 -20 7 -69 15 -109 16 -75 13 -107 -4 -48 -9 32 -9 33
-10 7 -1 -41 51 -95 109 -112 26 -8 62 -21 79 -30 17 -9 31 -12 31 -6 0 5 -4
10 -10 10 -5 0 -10 9 -10 19 0 14 -5 18 -19 14 -10 -3 -22 1 -26 7 -5 9 -1 10
14 5 12 -4 21 -2 21 4 0 6 -10 11 -22 12 -13 0 -34 3 -48 6 -14 2 -31 6 -38 7
-7 1 -12 5 -12 9 3 19 36 87 43 87 4 0 19 -12 32 -26 l24 -25 -7 25 c-4 14
-22 37 -41 50 -38 28 -48 28 -33 -1 7 -13 6 -28 -3 -49 -17 -40 -42 -58 -31
-23 19 60 23 114 11 131 -15 22 -25 13 -25 -21 0 -21 2 -23 10 -11 7 11 10 4
10 -25 0 -22 -4 -46 -9 -54 -9 -14 -18 24 -25 113 -5 60 -26 87 -26 34z"/>
<path d="M1030 1651 c0 -17 70 -89 116 -119 10 -7 13 -10 7 -7 -23 11 -14 -22
15 -50 15 -16 21 -25 13 -20 -9 5 -12 3 -9 -6 6 -19 37 -24 52 -8 8 9 8 10 -1
5 -14 -8 -15 -6 -17 36 -1 15 -7 33 -13 39 -7 7 -9 3 -5 -18 5 -25 4 -27 -12
-14 -10 8 -14 21 -11 32 4 13 -6 29 -36 56 -23 21 -54 50 -70 65 -25 22 -29
24 -29 9z"/>
<path d="M1109 1626 c19 -20 41 -36 48 -36 7 0 20 -14 28 -31 17 -32 31 -34
21 -2 -4 10 -27 34 -53 53 -68 52 -82 57 -44 16z"/>
<path d="M1440 1620 c0 -11 5 -20 11 -20 5 0 7 5 4 11 -4 6 2 5 14 -2 11 -8
22 -20 25 -29 2 -8 4 -1 5 17 0 17 -4 35 -11 39 -8 5 -9 2 -4 -11 6 -18 6 -18
-12 -2 -24 22 -32 21 -32 -3z"/>
<path d="M1226 1535 c5 -18 2 -30 -7 -36 -12 -7 -11 -11 4 -26 16 -16 17 -16
17 5 0 33 20 27 27 -8 5 -27 14 -35 36 -31 4 0 8 -3 8 -9 1 -5 2 -14 3 -19 2
-15 16 -25 16 -12 0 17 -29 71 -38 71 -5 0 -18 18 -31 40 -28 49 -44 61 -35
25z"/>
<path d="M1417 1534 c5 -13 2 -15 -14 -10 -27 9 -41 -23 -45 -108 l-4 -70 48
54 c26 29 45 56 42 59 -3 3 -13 -4 -21 -16 -18 -26 -33 -30 -33 -8 0 8 -4 15
-10 15 -5 0 -10 9 -10 20 0 15 7 20 26 20 15 0 23 4 19 11 -4 6 2 13 14 16 17
4 18 7 6 19 -18 19 -26 18 -18 -2z"/>
<path d="M2532 1524 c-7 -8 -11 -18 -8 -23 3 -5 -1 -14 -9 -21 -8 -7 -15 -20
-15 -30 0 -10 -7 -21 -16 -24 -14 -5 -14 -7 0 -22 20 -20 21 -30 1 -14 -9 7
-18 10 -22 6 -3 -3 -2 -6 4 -6 14 0 22 -69 10 -77 -6 -3 -7 -1 -4 4 11 18 -20
23 -40 7 -17 -14 -17 -15 3 -5 19 9 22 7 26 -14 5 -23 -3 -30 -27 -25 -5 1 -7
-2 -3 -6 4 -4 2 -14 -5 -22 -9 -13 -9 -14 1 -8 8 5 12 -1 12 -18 0 -24 -13
-32 -42 -27 -5 0 -8 -7 -8 -17 0 -18 -28 -49 -59 -67 -11 -6 -13 -4 -7 11 5
12 4 15 -2 9 -5 -5 -13 -21 -17 -35 -3 -14 -3 -20 2 -15 13 18 82 55 87 47 5
-9 -61 -71 -69 -64 -3 3 -5 0 -5 -6 0 -7 -12 -10 -32 -7 -29 4 -30 4 -8 -4 14
-5 21 -10 15 -11 -39 -9 -154 -21 -122 -13 33 9 17 21 -22 16 -24 -3 -41 -1
-46 6 -5 9 -11 9 -23 -1 -12 -10 -14 -10 -8 0 4 7 2 12 -5 12 -6 0 -18 8 -25
18 -8 10 -13 12 -14 5 0 -20 -20 -15 -21 5 0 13 -3 12 -11 -5 -6 -13 -15 -23
-19 -23 -23 0 -89 34 -89 45 0 7 -3 21 -7 31 -4 11 -2 15 4 11 6 -4 8 4 5 21
l-6 27 -6 -25 c-6 -22 -8 -23 -15 -7 -11 26 -35 2 -35 -34 0 -34 -15 -39 -23
-7 -5 18 -9 19 -21 9 -8 -7 -20 -10 -26 -6 -15 9 -13 28 3 19 6 -4 9 -3 5 1
-5 5 -20 10 -35 11 -16 2 -38 15 -51 30 -21 24 -22 32 -16 98 4 39 8 77 8 83
1 7 15 27 32 44 16 17 22 28 12 24 -9 -4 -19 -13 -22 -22 -4 -8 -12 -13 -19
-10 -9 3 -14 -6 -15 -31 -4 -48 -10 -53 -18 -14 -4 18 -10 32 -15 32 -9 0 6
-47 21 -65 15 -18 -5 -80 -41 -128 -19 -24 -41 -55 -49 -67 -8 -12 -24 -26
-34 -32 -16 -9 -18 -7 -13 11 3 11 3 21 0 21 -9 0 -92 -64 -93 -71 0 -3 10
-11 23 -17 22 -10 22 -11 -5 -11 -16 -1 -28 4 -28 10 0 6 -9 8 -20 4 -29 -9
-37 24 -30 125 4 47 7 75 8 62 1 -13 6 -20 12 -17 6 4 8 15 5 25 -14 45 -13
60 5 70 26 14 43 13 34 -2 -4 -7 -3 -10 1 -5 11 10 14 48 3 41 -15 -10 -8 13
12 39 11 14 20 30 20 36 0 7 15 -5 33 -26 17 -21 35 -39 40 -41 15 -7 6 -21
-10 -16 -15 5 -15 4 -3 -4 8 -6 18 -8 22 -6 16 10 7 33 -26 62 -19 16 -36 37
-38 47 -2 11 -19 -4 -59 -52 -47 -57 -58 -77 -64 -120 -5 -39 -10 -50 -21 -46
-18 7 -17 -7 1 -31 17 -22 20 -62 6 -70 -17 -11 -39 5 -46 32 -4 15 -9 22 -12
15 -8 -21 -43 9 -43 36 0 19 3 22 11 14 6 -6 17 -9 24 -7 7 3 21 -14 34 -42
25 -52 40 -55 18 -3 -27 62 -42 74 -89 74 -42 0 -43 1 -52 41 -8 36 -14 42
-53 56 -35 13 -41 13 -32 2 6 -8 9 -14 7 -14 -3 0 11 -32 31 -72 31 -63 40
-73 71 -81 39 -10 70 -33 70 -53 0 -7 10 -18 23 -25 12 -6 36 -25 54 -41 17
-17 36 -27 42 -24 6 4 11 2 11 -5 0 -7 8 -21 17 -31 9 -10 17 -33 17 -51 1
-25 5 -32 21 -32 30 0 85 -28 85 -43 0 -8 -9 -16 -19 -19 -20 -5 -36 -31 -26
-41 3 -3 5 0 5 6 0 7 5 12 11 12 5 0 7 -5 3 -12 -5 -7 -3 -8 5 -4 7 5 10 10 7
13 -3 3 2 12 10 21 12 12 18 12 23 3 5 -8 10 -2 14 18 l6 30 36 -15 c36 -15
36 -15 33 8 -3 20 -10 24 -63 29 -33 3 -76 13 -95 21 -34 15 -35 17 -32 61 3
37 8 48 25 53 12 4 44 22 71 41 37 25 50 40 51 62 1 15 7 37 13 47 10 17 11
17 23 -8 25 -56 131 -110 263 -132 48 -9 113 -22 144 -30 155 -41 237 -28 309
47 64 67 161 296 140 333 -7 11 -6 15 1 10 7 -4 15 10 22 35 6 23 16 52 20 65
11 27 2 31 -18 8z m-662 -383 c5 -11 10 -28 9 -38 0 -10 -3 -13 -5 -6 -3 7
-12 9 -20 6 -10 -4 -14 3 -14 26 0 35 14 41 30 12z"/>
<path d="M2809 1468 c-12 -40 -22 -79 -22 -85 0 -7 -4 -13 -9 -13 -4 0 -8 -8
-8 -18 0 -10 -7 -42 -15 -70 -13 -41 -20 -52 -36 -52 -20 0 -20 -1 2 -19 24
-19 24 -19 32 2 7 20 28 94 68 246 25 97 17 104 -12 9z"/>
<path d="M576 1498 c6 -10 74 -9 134 1 36 6 26 7 -47 7 -50 0 -89 -4 -87 -8z"/>
<path d="M1528 1499 c14 -15 16 -33 3 -25 -5 3 -12 -1 -15 -10 -9 -23 -7 -34
4 -34 5 0 7 7 4 15 -4 8 -1 15 4 15 6 0 13 -10 15 -22 2 -13 5 -4 6 18 1 32
-3 44 -16 49 -15 5 -16 4 -5 -6z"/>
<path d="M1678 1458 c-11 -17 -14 -29 -8 -33 6 -3 10 -1 10 4 0 6 6 11 14 11
8 0 18 5 22 12 4 6 3 8 -4 4 -6 -3 -12 1 -14 11 -2 14 -6 12 -20 -9z"/>
<path d="M1930 1470 c0 -6 11 -15 25 -20 29 -11 35 -34 6 -25 -11 3 -21 0 -24
-9 -4 -11 0 -12 21 -6 16 4 26 13 26 23 -2 20 12 22 19 3 3 -7 22 -16 41 -20
20 -4 36 -11 36 -16 0 -6 9 -10 19 -10 11 0 23 -4 26 -10 8 -12 35 -13 35 -1
0 9 -161 85 -202 95 -17 4 -28 2 -28 -4z"/>
<path d="M1568 1392 c-3 -52 -10 -87 -17 -92 -9 -5 -5 -9 13 -12 21 -4 24 -2
16 11 -4 9 -5 44 -1 78 4 33 4 69 0 79 -3 11 -8 -19 -11 -64z"/>
<path d="M2360 1450 c0 -6 9 -14 20 -17 11 -3 20 -12 20 -20 0 -8 -5 -11 -12
-7 -7 4 -8 3 -4 -5 4 -6 12 -9 17 -6 15 10 10 -8 -11 -40 -22 -34 -27 -53 -7
-33 19 20 40 75 32 87 -3 6 -1 11 4 11 6 0 11 6 11 14 0 9 -7 12 -20 9 -11 -3
-27 0 -35 7 -12 10 -15 10 -15 0z"/>
<path d="M710 1434 c-19 -7 -46 -11 -60 -8 -14 3 -22 2 -18 -2 4 -4 24 -10 45
-13 45 -7 57 -30 15 -29 -60 2 -58 -17 3 -23 47 -5 64 -12 82 -33 23 -27 45
-37 23 -11 -16 19 -13 23 25 27 20 2 29 -1 27 -9 -1 -7 5 -13 13 -13 15 0 14
3 -12 49 -2 2 -8 -1 -15 -6 -27 -22 -53 -18 -85 11 -35 31 -43 56 -18 56 8 0
15 5 15 10 0 6 -1 9 -2 9 -2 -1 -19 -7 -38 -15z"/>
<path d="M849 1410 c16 -14 31 -18 49 -13 15 3 23 2 19 -4 -4 -6 8 -10 28 -11
19 -1 35 3 35 8 0 13 -41 22 -81 18 -23 -2 -33 1 -31 10 1 7 -8 12 -20 12
l-23 -1 24 -19z"/>
<path d="M1180 1400 c0 -16 7 -20 34 -20 47 0 89 -17 80 -32 -5 -8 -2 -9 10
-5 10 4 15 3 11 -3 -3 -6 -1 -10 6 -10 8 0 8 -4 -1 -15 -7 -9 -10 -18 -6 -22
3 -3 6 -1 6 5 0 7 5 11 12 10 11 -3 13 9 9 42 0 6 -7 10 -14 10 -25 0 -67 25
-67 40 0 13 -1 13 -10 0 -9 -13 -10 -13 -10 0 0 13 -1 13 -10 0 -8 -13 -10
-12 -10 3 0 10 -8 17 -20 17 -13 0 -20 -7 -20 -20z"/>
<path d="M1800 1390 c0 -6 17 -19 38 -28 20 -9 37 -24 37 -32 0 -8 5 -15 12
-15 6 0 15 -3 19 -7 4 -5 0 -8 -8 -8 -18 0 -29 -52 -16 -72 5 -9 8 -6 8 10 0
12 5 22 11 22 7 0 9 -15 5 -42 -3 -24 -2 -34 1 -24 4 15 7 16 15 5 6 -9 7 -3
3 21 -4 19 -11 39 -16 45 -15 15 -10 25 10 25 11 0 23 5 27 12 4 6 3 8 -3 5
-6 -4 -21 5 -33 18 l-23 25 39 0 c47 0 54 -5 79 -54 18 -36 20 -37 29 -16 7
16 6 24 -4 30 -8 5 -18 6 -22 4 -4 -3 -8 1 -8 9 0 23 -30 42 -62 38 -19 -2
-28 2 -26 10 2 7 -7 14 -19 15 -14 1 -20 -3 -16 -12 3 -8 0 -14 -6 -14 -6 0
-11 4 -11 10 0 5 -6 7 -14 4 -7 -3 -16 2 -19 10 -7 18 -27 22 -27 6z"/>
<path d="M618 1384 c-10 -9 -10 -56 0 -70 13 -20 56 -38 60 -25 5 15 22 14 22
-1 0 -7 13 -22 28 -32 27 -20 27 -20 10 0 -26 30 -22 37 17 30 28 -6 34 -4 29
8 -6 16 -102 31 -133 21 -17 -5 -20 0 -23 35 -2 23 -6 38 -10 34z"/>
<path d="M870 1362 c0 -5 7 -15 15 -22 8 -6 13 -17 12 -23 -1 -7 16 -20 38
-31 48 -24 32 -33 -20 -12 -46 20 -69 20 -35 1 14 -7 25 -17 25 -22 0 -4 14
-18 32 -30 18 -12 33 -20 33 -16 0 3 6 1 13 -5 16 -13 73 -5 107 15 15 9 17
12 5 7 -52 -18 -75 -16 -98 8 -12 13 -22 28 -23 33 0 6 -18 20 -40 32 -21 13
-33 23 -25 23 11 0 10 4 -5 16 -10 8 -13 13 -6 9 7 -4 33 -7 57 -7 43 0 59
-10 33 -22 -7 -3 -2 -4 12 -3 18 1 25 7 23 22 -1 11 4 23 10 28 7 5 1 5 -13 1
-30 -9 -101 -8 -129 1 -12 3 -21 2 -21 -3z m87 -117 c20 -8 34 -18 30 -21 -3
-3 -25 3 -49 14 -50 24 -35 29 19 7z"/>
<path d="M2060 1341 c0 -17 5 -33 11 -37 6 -3 9 -17 6 -30 -3 -16 0 -24 9 -24
17 0 17 3 -1 48 -10 22 -12 38 -6 40 12 4 3 32 -10 32 -5 0 -9 -13 -9 -29z"/>
<path d="M1254 1352 c-6 -4 -8 -17 -5 -30 6 -22 6 -22 19 -2 10 16 10 20 0 20
-9 0 -8 3 2 10 8 5 11 10 5 10 -5 0 -15 -4 -21 -8z"/>
<path d="M1839 1326 c7 -9 11 -22 8 -30 -4 -10 -1 -13 9 -9 24 9 14 45 -15 51
-12 3 -12 0 -2 -12z"/>
<path d="M1464 1319 c-8 -13 -10 -18 -13 -37 0 -5 -10 -18 -20 -29 -19 -20
-19 -21 8 -47 19 -18 28 -22 28 -12 0 8 -4 13 -8 10 -13 -8 -20 14 -13 40 3
14 10 23 15 20 5 -3 6 1 3 9 -3 8 -1 18 5 22 6 3 11 1 11 -6 0 -7 2 -10 5 -7
3 3 2 16 -3 28 -7 19 -11 21 -18 9z"/>
<path d="M985 1283 c22 -15 42 -30 43 -35 9 -21 18 -4 14 26 -4 33 -5 34 -28
24 -18 -9 -28 -8 -36 0 -7 7 -17 12 -22 12 -6 0 7 -12 29 -27z"/>
<path d="M1751 1301 c-13 -9 -1 -23 32 -34 21 -8 21 -5 -1 21 -11 12 -23 18
-31 13z"/>
<path d="M1064 1276 c-9 -24 16 -46 41 -36 17 7 16 9 -10 9 -23 1 -26 4 -15
11 12 7 12 12 3 21 -10 10 -14 9 -19 -5z"/>
<path d="M1957 1258 c-10 -11 -16 -23 -12 -26 3 -4 14 3 23 14 9 12 24 24 32
27 10 4 9 5 -5 5 -11 0 -28 -9 -38 -20z"/>
<path d="M634 1256 c4 -10 1 -25 -5 -32 -9 -11 -9 -13 3 -9 10 4 14 -4 16 -28
3 -40 41 -124 41 -92 1 24 -35 140 -50 163 -9 15 -10 15 -5 -2z"/>
<path d="M2040 1249 c0 -11 -4 -18 -9 -15 -5 3 -11 -3 -14 -14 -3 -11 -1 -20
3 -20 5 0 16 -3 26 -7 14 -5 15 -3 6 12 -6 12 -7 28 -1 42 5 14 5 23 -1 23 -6
0 -10 -9 -10 -21z"/>
<path d="M730 1229 l-35 -18 63 -1 c65 0 73 4 45 26 -23 17 -30 16 -73 -7z"/>
<path d="M837 1223 c-4 -3 -7 -16 -7 -29 0 -19 -7 -23 -50 -29 -66 -9 -70 -35
-5 -35 29 0 45 4 45 13 0 9 2 9 8 0 5 -8 12 1 18 27 10 37 5 68 -9 53z"/>
<path d="M894 1207 c16 -12 42 -34 58 -49 17 -16 34 -25 39 -22 5 3 9 -3 9
-13 0 -11 3 -14 8 -7 4 7 20 10 36 9 29 -4 99 25 111 45 9 14 5 13 -43 -10
-54 -26 -89 -20 -179 31 -37 21 -55 29 -39 16z"/>
<path d="M2337 1218 c-10 -5 -24 -8 -30 -5 -7 3 -12 -5 -12 -19 0 -18 3 -21
10 -12 6 7 21 15 35 16 30 5 31 5 22 19 -5 8 -13 8 -25 1z"/>
<path d="M1567 1213 c-4 -3 -7 -15 -7 -25 0 -15 -5 -18 -22 -14 -13 3 -18 3
-12 1 6 -3 10 -16 9 -28 -1 -12 0 -14 2 -4 2 9 11 17 19 17 7 0 16 11 20 25 7
27 2 40 -9 28z"/>
<path d="M1390 1191 c-12 -23 -13 -90 -2 -108 5 -8 22 0 56 25 l49 36 -41 18
c-29 13 -39 23 -36 33 9 22 -14 18 -26 -4z m46 -60 c-4 -6 -16 -11 -26 -11
-19 0 -21 14 -6 38 7 12 11 11 23 -1 9 -8 12 -20 9 -26z"/>
<path d="M2235 1190 c-3 -5 -4 -14 0 -19 8 -15 -15 -25 -28 -12 -17 17 -31 13
-17 -4 17 -21 36 -19 62 7 17 17 18 20 4 15 -14 -5 -17 -3 -12 8 6 17 0 20 -9
5z"/>
<path d="M2712 1158 c-7 -9 -6 -17 3 -25 10 -10 14 -9 19 3 13 33 -1 47 -22
22z"/>
<path d="M392 1155 c23 -63 68 -133 68 -106 0 5 -4 13 -10 16 -5 3 -10 14 -10
23 0 9 -12 31 -26 47 -14 17 -24 26 -22 20z"/>
<path d="M1171 1121 c-15 -36 -11 -73 9 -79 13 -5 13 -3 2 11 -15 18 -8 72 10
83 7 5 9 0 6 -14 -3 -12 0 -29 7 -38 11 -15 12 -12 6 21 -8 48 -25 55 -40 16z"/>
<path d="M701 1110 c0 -14 6 -38 14 -55 l13 -30 -5 40 c-7 50 -22 82 -22 45z"/>
<path d="M1125 1107 c-22 -34 -22 -112 0 -137 10 -11 20 -18 24 -17 3 1 17 -6
31 -16 24 -17 24 -17 3 -17 -29 0 -73 20 -73 34 0 6 -7 19 -14 28 -11 15 -12
10 -9 -35 3 -28 7 -59 10 -67 4 -8 7 -18 7 -22 1 -3 5 -10 10 -15 6 -5 6 -2 1
6 -7 11 -4 13 11 6 10 -5 33 -9 51 -9 25 -1 33 -6 38 -23 3 -13 10 -23 15 -23
6 0 10 -9 10 -20 0 -13 -9 -22 -25 -26 -20 -5 -23 -9 -14 -20 19 -23 56 -16
78 14 12 15 20 23 19 17 -3 -16 12 -84 20 -89 4 -3 7 12 5 32 -2 20 0 31 3 25
3 -7 10 -13 15 -13 6 0 7 5 4 10 -7 11 8 14 19 3 3 -4 14 -8 24 -9 9 -2 29 -6
45 -10 19 -4 27 -3 27 7 0 8 -12 15 -30 16 -16 1 -43 9 -60 18 -17 9 -36 13
-42 9 -7 -4 -8 -3 -4 4 5 8 -1 12 -18 12 -31 0 -86 45 -86 71 0 21 -29 26 -46
9 -8 -8 -19 -7 -37 1 -34 15 -35 33 -2 27 14 -3 30 1 36 8 13 16 33 19 24 5
-3 -5 -1 -12 5 -16 5 -3 10 -3 11 2 3 34 12 69 20 86 6 10 8 21 5 24 -3 3 -10
-6 -15 -21 -10 -25 -39 -35 -55 -18 -4 4 -12 7 -18 7 -12 0 -17 18 -25 80 -3
27 -1 35 5 26 7 -9 11 -4 15 20 6 43 2 47 -18 16z m135 -362 c-7 -8 -22 -15
-34 -15 -19 0 -18 2 9 20 32 21 45 19 25 -5z"/>
<path d="M940 1112 c0 -14 45 -52 62 -52 23 0 41 -27 35 -51 -4 -16 -3 -18 9
-8 8 6 14 20 14 30 0 10 9 26 19 36 19 17 18 18 -29 15 -38 -3 -56 1 -80 18
-16 12 -30 17 -30 12z"/>
<path d="M787 1104 c-7 -8 13 -54 25 -54 9 0 10 7 2 38 -6 22 -15 27 -27 16z"/>
<path d="M842 1075 c2 -32 7 -39 21 -37 9 2 17 -2 17 -8 0 -5 5 -10 10 -10 6
0 10 9 10 21 0 15 -5 19 -15 15 -17 -6 -21 9 -5 19 6 3 10 11 10 17 0 7 -5 6
-14 -1 -11 -10 -17 -8 -25 6 -9 15 -11 11 -9 -22z"/>
<path d="M2706 1083 c-3 -16 -8 -39 -11 -53 -3 -14 3 -2 15 25 23 58 23 55 11
55 -5 0 -11 -12 -15 -27z"/>
<path d="M630 1042 c0 -6 7 -17 15 -26 8 -8 15 -19 15 -25 0 -5 4 -12 9 -15 4
-3 6 5 4 19 -5 24 -43 67 -43 47z"/>
<path d="M1300 1001 c-29 -30 -49 -61 -50 -78 0 -20 18 -15 25 6 3 11 17 36
31 56 30 45 28 50 -6 16z"/>
<path d="M1744 992 c10 -12 32 -19 58 -20 51 -2 68 -16 69 -56 1 -23 3 -25 6
-8 2 12 9 22 15 22 6 0 8 -9 5 -20 -3 -11 -1 -18 3 -15 15 9 21 -14 10 -35 -7
-13 -7 -20 0 -20 11 0 13 -30 4 -54 -13 -34 -27 -9 -36 61 -1 7 -10 15 -20 19
-20 6 -24 19 -8 29 6 3 10 12 9 18 0 9 -2 9 -5 0 -4 -8 -17 -10 -37 -6 l-32 5
38 -32 c20 -17 37 -35 37 -39 0 -3 -14 -12 -32 -19 -17 -6 -29 -15 -25 -19 4
-4 13 -1 19 5 31 31 54 -9 42 -74 -6 -30 -9 -33 -33 -29 -20 4 -22 3 -7 -3 30
-13 3 -23 -43 -16 -22 3 -42 13 -46 21 -4 11 -14 14 -36 9 -16 -3 -28 -2 -25
2 2 4 -4 8 -14 8 -10 0 -16 -5 -13 -10 4 -5 0 -7 -9 -4 -8 4 -21 2 -29 -4 -10
-7 -4 -8 21 -5 31 4 36 2 38 -16 1 -15 -1 -18 -7 -9 -7 11 -16 11 -50 1 -22
-7 -41 -16 -41 -21 0 -4 -3 -7 -7 -6 -18 4 -72 -14 -90 -31 -37 -35 -56 -40
-90 -26 -21 9 -34 10 -41 3 -7 -7 -22 -2 -46 17 -25 19 -51 28 -84 31 l-47 3
43 -8 c27 -5 54 -19 75 -39 32 -31 67 -42 67 -22 0 6 7 10 15 10 20 0 19 -12
-6 -44 -11 -14 -30 -26 -42 -26 -12 0 -33 -12 -46 -25 -13 -15 -34 -25 -50
-25 -35 0 -44 -9 -26 -26 17 -17 26 -18 23 -1 -2 7 6 11 20 9 12 -2 22 2 22 8
0 6 4 9 9 6 5 -3 12 1 15 10 4 9 9 14 13 11 3 -4 12 1 20 11 13 16 14 15 8 -6
-4 -15 -1 -24 9 -28 9 -3 17 -18 17 -33 1 -17 3 -20 6 -8 7 28 23 9 23 -28 0
-38 -23 -105 -50 -145 -14 -20 -16 -38 -10 -90 7 -68 3 -92 -11 -69 -6 10 -9
7 -9 -11 0 -14 -5 -32 -10 -40 -14 -22 -6 121 8 148 7 12 9 22 4 22 -5 0 -15
-11 -22 -25 -8 -15 -20 -23 -27 -20 -8 2 -12 1 -8 -4 3 -5 -8 -19 -24 -30
l-30 -21 -59 37 c-105 67 -101 63 -67 57 47 -9 108 -34 119 -49 18 -24 39 -3
27 26 l-10 24 0 -23 -1 -23 -30 21 c-26 19 -29 24 -18 38 11 14 10 14 -11 -1
-17 -11 -28 -13 -37 -6 -7 6 -34 9 -61 7 l-48 -3 38 -23 c20 -13 34 -28 31
-34 -5 -7 -2 -8 5 -4 7 5 21 0 32 -10 19 -17 19 -19 2 -25 -12 -5 -3 -8 25 -8
30 -1 42 -5 40 -13 -8 -24 -108 -69 -166 -76 l-57 -6 44 -8 c28 -5 49 -4 57 3
8 7 14 6 19 -1 5 -8 13 -5 26 9 25 26 33 27 26 1 -3 -13 0 -20 8 -20 8 0 15
12 17 27 2 14 9 28 15 31 9 2 11 -5 7 -27 -7 -35 2 -40 22 -14 16 21 18 47 4
38 -18 -11 -10 22 10 40 20 18 20 17 20 -39 0 -83 23 -70 30 16 7 94 22 98 18
5 -1 -42 -1 -77 2 -77 8 1 70 86 70 97 0 5 13 27 29 49 16 21 34 58 40 81 6
23 16 45 22 49 15 9 29 -14 29 -46 0 -15 4 -30 9 -35 8 -8 31 -150 31 -187 0
-5 7 -8 16 -8 13 0 14 11 8 82 -3 46 -13 98 -20 117 -8 18 -14 41 -14 51 0 26
-56 144 -76 161 -21 18 -44 70 -44 103 0 21 9 27 63 45 73 25 102 41 75 41
-10 0 -18 3 -18 6 0 8 32 33 43 34 4 0 7 -5 7 -11 0 -5 -4 -8 -9 -4 -5 3 -12
1 -15 -4 -11 -18 26 -21 57 -4 18 9 61 27 96 39 l65 23 29 -25 c16 -13 40 -27
53 -30 28 -7 75 10 98 35 20 22 33 81 17 81 -12 0 -12 -1 -16 -38 -3 -26 -10
-36 -22 -29 -5 3 -7 24 -5 47 3 29 7 38 13 29 6 -10 9 -11 9 -1 0 6 6 12 14
12 22 0 29 50 14 113 -11 53 -17 61 -54 83 -22 13 -52 24 -65 24 -13 0 -33 7
-43 15 -11 8 -26 15 -34 15 -13 0 -12 -3 2 -18z m116 -337 c0 -10 -10 -15 -27
-15 -27 1 -27 1 -9 15 25 19 36 19 36 0z m-431 -315 c0 -8 -7 -1 -14 15 -13
28 -14 26 -10 -35 5 -64 5 -64 -10 -35 l-16 30 6 -30 c3 -16 8 -38 11 -47 3
-10 1 -18 -4 -18 -5 0 -13 -16 -16 -35 -4 -19 -11 -35 -16 -35 -12 0 -24 101
-13 109 6 3 20 37 33 75 22 67 23 68 36 45 7 -13 13 -31 13 -39z"/>
<path d="M1681 974 c-12 -15 -21 -37 -21 -50 0 -38 42 -28 48 11 6 30 12 32
12 2 0 -33 17 -43 39 -23 10 9 23 16 29 16 15 0 15 17 0 26 -7 4 -8 3 -4 -4 4
-7 3 -12 -3 -12 -5 0 -16 -3 -25 -6 -10 -4 -17 2 -22 20 -3 14 -10 23 -15 20
-5 -3 -6 2 -3 10 10 25 -13 18 -35 -10z"/>
<path d="M855 948 c-27 -22 -54 -47 -59 -56 -5 -8 9 -1 30 16 22 17 60 36 87
43 48 12 68 35 22 27 -13 -3 -22 -1 -19 3 12 19 -14 6 -61 -33z"/>
<path d="M1310 949 c-7 -24 -18 -51 -24 -59 -10 -13 -9 -13 6 -2 19 15 42 75
36 93 -2 7 -10 -8 -18 -32z"/>
<path d="M1504 979 c-3 -5 1 -11 8 -13 60 -17 98 -26 114 -26 17 0 16 2 -3 15
-27 19 -111 36 -119 24z"/>
<path d="M742 955 c-14 -31 -15 -62 -2 -70 5 -3 7 -12 3 -20 -3 -8 -1 -15 3
-15 5 0 9 29 9 65 0 36 0 65 -1 65 0 0 -6 -11 -12 -25z"/>
<path d="M1351 925 c-6 -16 -17 -43 -23 -58 -12 -31 -4 -47 15 -27 9 10 9 11
0 6 -18 -10 -16 -2 8 45 11 22 18 46 16 52 -3 7 -10 -1 -16 -18z"/>
<path d="M933 932 c-8 -5 -3 -16 15 -37 15 -17 23 -22 19 -12 -4 10 -7 27 -7
38 0 20 -8 23 -27 11z"/>
<path d="M1000 935 c0 -2 5 -16 12 -30 8 -19 14 -22 20 -13 6 11 10 10 17 0 7
-11 9 -11 14 1 4 10 -4 22 -18 31 -23 15 -45 21 -45 11z"/>
<path d="M608 889 c5 -13 20 -30 34 -39 14 -8 37 -23 52 -34 15 -10 30 -16 33
-12 4 4 -3 9 -15 13 -12 3 -22 9 -22 14 0 5 -16 17 -35 26 -19 9 -32 20 -30
24 3 3 -2 12 -10 19 -13 11 -14 10 -7 -11z"/>
<path d="M1390 885 c0 -8 -7 -15 -15 -15 -8 0 -15 -7 -15 -15 0 -16 9 -19 25
-7 11 8 20 52 11 52 -3 0 -6 -7 -6 -15z"/>
<path d="M993 793 c3 -86 5 -95 34 -130 16 -21 38 -40 47 -41 16 -4 16 -2 -1
15 -43 45 -63 77 -52 84 7 4 7 8 2 10 -13 5 -25 69 -13 69 5 0 11 -8 14 -18 6
-19 63 -45 71 -32 5 8 -37 40 -53 40 -5 0 -19 21 -31 48 l-21 47 3 -92z"/>
<path d="M1449 840 c-10 -32 -16 -39 -31 -34 -10 3 -18 1 -18 -5 0 -6 6 -10
13 -8 6 1 11 -6 11 -15 -3 -29 14 -11 21 23 5 21 10 27 15 19 10 -16 30 -4 29
18 0 11 -3 12 -6 5 -9 -24 -23 -13 -17 12 10 41 -4 28 -17 -15z"/>
<path d="M1966 871 c-4 -5 8 -12 26 -16 18 -4 98 -22 178 -42 168 -40 240 -51
240 -35 0 5 10 8 23 5 18 -4 19 -3 7 6 -8 6 -26 11 -40 11 -26 0 -101 15 -277
56 -110 26 -149 29 -157 15z"/>
<path d="M923 840 c2 -33 20 -35 25 -3 2 11 -4 23 -12 26 -12 5 -15 -1 -13
-23z"/>
<path d="M1618 857 c8 -9 11 -21 7 -26 -3 -6 3 -20 14 -32 11 -12 17 -28 14
-38 -4 -9 -3 -13 1 -9 13 11 13 42 0 56 -7 7 -11 19 -8 27 3 8 -4 19 -18 26
-21 11 -22 11 -10 -4z"/>
<path d="M1677 843 c-8 -15 0 -68 9 -63 5 3 8 19 6 35 -2 23 0 27 7 15 9 -13
11 -13 11 3 0 17 -25 24 -33 10z"/>
<path d="M1142 821 c17 -23 40 -41 52 -41 6 0 4 5 -4 10 -11 7 -12 12 -3 18 8
5 -1 11 -23 18 -30 10 -33 9 -22 -5z"/>
<path d="M1735 815 c-5 -11 -20 -30 -34 -43 -20 -18 -22 -22 -7 -18 17 6 17 5
5 -10 -13 -16 -12 -16 8 -6 17 9 22 9 27 -3 10 -28 106 -7 106 22 0 9 -11 6
-32 -7 -40 -24 -57 -25 -73 -3 -10 14 -10 21 2 40 8 12 13 28 10 35 -3 9 -7 6
-12 -7z"/>
<path d="M755 810 c3 -5 12 -7 19 -4 30 11 136 -67 136 -100 0 -8 7 -27 15
-42 9 -17 11 -30 5 -32 -6 -2 -7 -8 -4 -13 3 -6 11 -5 20 2 12 10 15 10 12 -2
-2 -8 7 -15 21 -17 24 -4 24 -3 -5 21 -19 16 -36 46 -47 79 -19 60 -45 90 -96
107 -41 13 -84 15 -76 1z"/>
<path d="M1544 793 c-10 -16 -19 -23 -22 -15 -5 17 -22 15 -22 -3 0 -7 -8 -19
-17 -25 -13 -8 -14 -13 -5 -16 6 -3 9 -11 5 -17 -3 -7 10 4 29 24 32 32 64 79
55 79 -3 0 -13 -12 -23 -27z"/>
<path d="M554 799 c-4 -7 -8 -25 -9 -40 -1 -21 3 -28 21 -32 31 -6 38 17 15
54 -13 22 -21 27 -27 18z"/>
<path d="M597 793 c-2 -4 15 -27 39 -51 24 -24 44 -38 44 -32 0 16 -77 93 -83
83z"/>
<path d="M1610 790 c14 -9 11 -12 -19 -14 -8 -1 -15 -10 -17 -20 -1 -10 -17
-34 -35 -52 -27 -28 -29 -32 -11 -27 12 3 20 9 17 13 -3 5 -1 11 4 14 5 4 12
2 16 -4 3 -5 11 -10 18 -10 8 0 8 3 -1 12 -9 9 -7 17 12 33 33 27 44 65 19 65
-15 0 -16 -2 -3 -10z"/>
<path d="M2451 726 c-6 -24 -11 -57 -11 -73 0 -22 -172 -556 -205 -636 -5 -11
-3 -17 8 -17 16 0 26 23 97 245 68 210 81 245 91 245 10 0 41 -99 34 -110 -3
-4 1 -10 9 -13 12 -5 11 3 -1 46 -32 112 -35 148 -20 191 19 51 28 138 18 155
-5 8 -12 -3 -20 -33z"/>
<path d="M1360 693 c14 -30 22 -34 56 -23 l29 9 -32 -2 c-22 -1 -37 5 -48 18
-16 20 -16 20 -5 -2z"/>
<path d="M1210 690 c-12 -8 -11 -10 8 -10 25 0 97 -34 107 -50 3 -5 31 -10 62
-10 67 0 66 5 -2 15 -27 3 -59 14 -70 24 -11 10 -35 23 -54 30 -40 13 -33 13
-51 1z"/>
<path d="M747 672 c-14 -22 12 -77 55 -118 l42 -39 -37 42 c-34 39 -41 55 -49
108 -3 14 -6 16 -11 7z"/>
<path d="M791 621 c6 -16 31 -46 57 -68 65 -53 95 -72 49 -32 -42 38 -46 49
-17 49 11 0 20 5 20 10 0 6 -5 10 -11 10 -7 0 -33 13 -60 29 l-48 30 10 -28z"/>
<path d="M1125 620 l-30 -6 32 -7 c18 -3 42 -16 53 -27 11 -11 20 -16 20 -11
0 6 -8 16 -18 23 -11 7 -21 18 -23 23 -2 6 -17 8 -34 5z"/>
<path d="M768 532 c39 -45 81 -100 92 -122 11 -22 23 -40 25 -40 15 0 -69 135
-106 170 -73 70 -76 67 -11 -8z"/>
<path d="M920 555 c0 -8 5 -15 11 -15 5 0 7 -4 4 -10 -3 -5 -1 -10 4 -10 6 0
11 7 11 15 0 17 16 20 25 4 4 -5 -1 -19 -11 -30 -24 -27 -2 -24 24 4 26 28 18
42 -30 51 -31 6 -38 4 -38 -9z"/>
<path d="M1042 524 c13 -13 28 -24 35 -24 6 0 9 -9 6 -22 -3 -18 -2 -19 5 -8
5 8 13 26 17 38 6 21 4 23 -15 17 -14 -5 -25 -2 -30 6 -5 7 -16 14 -24 15 -13
2 -11 -3 6 -22z"/>
<path d="M1120 513 c-2 -7 -3 -17 -4 -22 0 -5 -4 -13 -8 -17 -12 -11 -10 -34
3 -34 5 0 7 5 4 10 -8 13 14 42 25 35 5 -3 11 -1 15 5 3 5 15 10 26 10 14 0
18 -4 13 -12 -6 -10 -4 -10 7 -2 8 6 21 14 29 17 8 4 -11 6 -43 4 -31 -1 -59
3 -61 8 -3 6 -5 4 -6 -2z"/>
<path d="M964 467 c-21 -23 -32 -36 -24 -29 20 17 40 15 40 -4 0 -14 3 -14 15
-4 13 11 13 15 3 21 -11 7 -11 12 0 30 23 36 7 30 -34 -14z"/>
<path d="M1152 473 c-10 -18 4 -63 20 -63 4 0 8 -10 8 -22 0 -15 3 -19 8 -11
9 15 25 5 41 -25 10 -19 10 -27 -1 -40 -12 -15 -11 -16 5 -3 14 11 17 11 18 0
1 -8 2 -21 3 -29 2 -8 3 -28 4 -43 1 -16 6 -26 12 -22 6 4 6 15 -1 32 -5 15
-7 32 -5 40 10 26 -81 163 -98 146 -9 -10 -7 6 4 27 13 24 -5 37 -18 13z"/>
<path d="M1112 394 c2 -10 -9 -44 -24 -74 -27 -54 -27 -55 -3 -27 14 15 25 37
25 48 0 10 7 19 15 19 20 0 19 17 -1 38 -15 14 -16 14 -12 -4z"/>
<path d="M1041 386 c-10 -12 -10 -16 -1 -16 7 0 10 -6 7 -13 -4 -10 2 -13 19
-9 25 5 34 32 10 32 -8 0 -16 5 -18 11 -2 7 -9 5 -17 -5z"/>
<path d="M1117 283 c-2 -10 -8 -27 -11 -38 -4 -11 1 -5 12 14 16 28 20 31 26
16 3 -10 9 -16 11 -13 9 9 -7 38 -20 38 -7 0 -15 -8 -18 -17z"/>
<path d="M2520 277 c-14 -7 -25 -17 -25 -22 0 -6 18 -65 40 -132 25 -78 45
-123 54 -123 7 0 11 6 8 13 -3 7 -15 49 -27 92 -12 44 -29 93 -37 108 -27 53
-17 55 143 25 82 -16 188 -37 237 -47 48 -10 87 -14 87 -10 0 4 -7 9 -15 13
-20 7 -19 25 2 48 11 12 12 18 4 18 -7 0 -21 -10 -31 -22 -17 -22 -20 -22 -91
-9 -72 13 -124 23 -184 35 -27 6 -138 26 -139 26 -1 0 -12 -6 -26 -13z"/>
<path d="M830 247 c-25 -16 -30 -23 -18 -25 15 -3 64 35 56 43 -2 2 -19 -6
-38 -18z"/>
<path d="M1200 232 c1 -9 37 -52 44 -52 11 0 -17 49 -30 54 -8 3 -14 2 -14 -2z"/>
<path d="M745 201 c-4 -7 5 -11 22 -11 15 0 38 -6 50 -13 63 -36 83 -45 83
-37 0 13 -79 57 -117 65 -18 3 -34 2 -38 -4z"/>
<path d="M2484 198 c-16 -21 -67 -188 -60 -195 11 -11 18 4 47 103 28 95 32
118 13 92z"/>
<path d="M1006 124 c2 -40 6 -48 33 -65 17 -10 31 -15 31 -10 0 5 -7 11 -15
15 -8 3 -15 10 -15 16 0 13 47 13 55 0 3 -6 11 -10 16 -10 14 0 5 25 -9 26 -7
1 -15 3 -19 4 -5 1 -18 1 -30 0 -15 -1 -23 4 -24 14 -3 31 -4 35 -14 45 -8 8
-10 -3 -9 -35z"/>
<path d="M935 140 c9 -10 24 -16 33 -13 14 4 14 3 3 -5 -7 -5 -10 -15 -7 -21
13 -21 27 -11 24 16 -2 22 -10 29 -36 34 -31 6 -32 6 -17 -11z"/>
<path d="M2500 104 c0 -20 4 -33 9 -29 6 3 13 -10 17 -30 3 -19 11 -38 17 -42
6 -4 8 0 5 8 -3 8 -13 40 -22 72 -9 31 -19 57 -21 57 -3 0 -5 -16 -5 -36z"/>
<path d="M866 122 c6 -4 16 -20 22 -37 9 -25 11 -26 11 -8 1 16 6 21 16 17 8
-4 15 -2 15 4 0 6 -14 15 -31 21 -37 13 -49 14 -33 3z"/>
<path d="M2985 54 c-4 -22 -2 -41 4 -47 8 -8 11 3 11 36 0 56 -5 60 -15 11z"/>
<path d="M2 59 c3 -8 17 -13 33 -12 16 1 35 -3 42 -8 7 -6 24 -8 38 -5 17 4
27 2 31 -7 3 -8 17 -15 32 -15 15 -1 72 -4 127 -6 l100 -5 -80 14 c-61 11 -81
11 -87 2 -6 -9 -12 -8 -21 4 -7 10 -42 20 -91 28 -43 6 -90 14 -104 18 -18 4
-23 2 -20 -8z"/>
<path d="M1429 43 c-12 -15 -12 -16 3 -10 12 4 19 0 23 -14 8 -25 25 -25 18 1
-9 32 -28 43 -44 23z"/>
</g>
</svg>
