<?xml version="1.0" standalone="no"?>
<!DOCTYPE svg PUBLIC "-//W3C//DTD SVG 20010904//EN"
 "http://www.w3.org/TR/2001/REC-SVG-20010904/DTD/svg10.dtd">
<svg version="1.0" xmlns="http://www.w3.org/2000/svg"
 width="143.000000pt" height="143.000000pt" viewBox="0 0 143.000000 143.000000"
 preserveAspectRatio="xMidYMid meet">
<metadata>
Created by potrace 1.10, written by Peter Selinger 2001-2011
</metadata>
<g transform="translate(0.000000,143.000000) scale(0.100000,-0.100000)"
fill="#000000" stroke="none">
<path d="M0 1400 c0 -19 5 -19 110 -15 76 4 110 2 110 -6 0 -15 70 -4 81 12 6
10 16 10 41 3 18 -6 47 -9 63 -7 17 1 100 5 185 9 302 12 222 22 -182 23 -400
1 -408 1 -408 -19z"/>
<path d="M910 1411 c12 -7 173 -20 258 -21 7 0 10 -6 7 -12 -4 -7 -1 -6 7 2
10 11 39 15 121 17 59 1 107 -2 107 -5 -1 -23 -31 -42 -66 -43 -21 -1 -31 -3
-21 -6 9 -2 17 -11 17 -19 0 -8 -8 -14 -17 -15 -14 0 -13 -2 5 -9 17 -7 28 -5
47 12 13 11 22 25 20 29 -3 4 4 10 15 14 14 4 20 15 20 36 l0 29 -267 0 c-153
0 -262 -4 -253 -9z"/>
<path d="M685 1375 c-212 -40 -366 -128 -421 -242 -25 -50 -28 -68 -29 -158 0
-97 1 -104 38 -177 40 -82 125 -171 199 -209 41 -21 57 -8 31 26 -10 15 -16
17 -22 7 -4 -7 -15 -10 -24 -6 -9 3 -15 10 -12 14 3 4 -2 13 -10 20 -8 7 -15
9 -15 6 0 -20 -88 88 -107 130 -40 92 -45 114 -47 199 -2 154 72 234 314 338
66 29 228 42 340 27 55 -7 100 -16 100 -21 0 -5 7 -9 16 -9 27 0 103 -50 138
-92 57 -66 98 -164 97 -233 -1 -95 -36 -226 -73 -274 -10 -13 -18 -20 -18 -16
0 5 -8 -1 -17 -11 -24 -26 -93 -77 -93 -68 0 3 -6 2 -13 -4 -10 -9 -24 -6 -54
9 -46 22 -58 42 -40 61 7 8 13 20 15 28 2 8 8 18 14 21 6 4 5 9 -3 12 -8 3 -9
6 -4 6 6 1 10 28 9 61 -1 62 11 82 19 33 4 -21 4 -19 3 7 0 22 -6 34 -13 32
-12 -2 -19 20 -13 43 8 31 5 55 -14 100 -24 58 -65 103 -77 83 -9 -14 7 -38
25 -38 6 0 16 -12 23 -27 25 -60 29 -118 17 -236 -12 -115 -13 -119 -53 -171
-31 -39 -51 -56 -82 -65 -37 -11 -89 -8 -114 7 -5 4 -16 7 -22 8 -7 1 -20 10
-29 19 -14 13 -19 14 -26 3 -6 -9 -8 -7 -3 8 3 13 -1 26 -10 34 -8 7 -15 9
-15 4 0 -4 -6 1 -14 12 -8 10 -17 16 -21 12 -10 -10 42 -75 79 -97 39 -25 149
-43 181 -31 13 5 32 19 43 30 33 36 43 18 29 -52 -5 -26 -41 -98 -49 -98 -5 0
-8 -6 -8 -13 0 -7 -15 -27 -32 -44 l-33 -31 -54 40 c-40 30 -50 43 -40 49 10
7 7 8 -10 7 -25 -3 -58 32 -64 67 -2 11 -9 31 -16 44 -8 14 -9 21 -2 17 6 -4
11 -3 11 2 0 12 -26 23 -34 15 -13 -14 -5 -63 12 -75 11 -7 19 -20 20 -28 0
-8 4 -25 7 -37 5 -15 3 -23 -4 -23 -6 0 -11 4 -11 9 0 5 -15 18 -33 30 -17 11
-26 21 -19 21 19 0 14 18 -9 31 -12 6 -19 7 -15 1 3 -5 0 -12 -8 -15 -8 -3
-18 5 -25 19 -6 14 -15 23 -20 19 -6 -3 -28 13 -50 35 -43 43 -51 46 -69 28
-18 -18 -16 -62 3 -55 24 10 27 -11 4 -23 -16 -9 -20 -9 -14 -1 8 14 -29 7
-95 -17 -25 -9 -52 -17 -60 -18 -30 -3 -60 -17 -60 -26 0 -6 7 -7 17 -2 10 4
29 8 43 8 14 1 36 9 50 19 25 18 65 24 56 8 -4 -5 9 -4 28 1 28 9 38 7 60 -8
32 -24 32 -28 2 -42 -28 -12 -43 -4 -21 12 12 9 9 11 -19 11 -38 0 -38 -15 -1
-35 20 -11 28 -10 50 4 24 16 51 14 40 -3 -2 -5 -33 -18 -67 -31 -61 -22 -62
-23 -35 -33 22 -7 26 -12 16 -23 -18 -22 10 -18 69 11 65 31 68 51 4 27 -47
-18 -72 -19 -72 -1 0 5 11 9 24 9 13 0 37 8 53 17 28 16 30 16 52 -6 13 -13
21 -24 19 -26 -9 -8 -84 -43 -90 -41 -4 0 -13 -7 -20 -16 -22 -29 -35 -24 -72
27 l-36 50 26 3 c25 3 25 4 8 30 -9 15 -23 31 -31 35 -7 5 -11 12 -8 18 4 5
-2 6 -11 2 -11 -4 -13 -8 -6 -11 18 -6 4 -22 -19 -22 -16 0 -14 -7 18 -52 21
-28 38 -57 39 -64 3 -16 46 -74 56 -74 9 0 6 -72 -3 -80 -4 -3 -3 -14 2 -25 8
-20 8 -20 8 0 1 17 3 18 11 5 6 -8 15 -33 21 -55 7 -22 14 -34 16 -27 3 6 11
12 19 12 9 0 12 5 9 11 -4 6 -13 8 -21 5 -9 -4 -14 2 -14 17 0 38 -12 67 -26
67 -8 0 -14 9 -14 20 0 33 16 23 50 -29 17 -27 38 -55 45 -61 9 -8 13 -21 9
-36 -4 -14 -2 -24 5 -24 6 0 8 8 5 18 -4 11 1 8 15 -8 25 -31 26 -37 4 -43
-14 -4 -12 -5 5 -6 12 0 22 -6 22 -12 0 -6 -7 -8 -16 -5 -8 3 -12 2 -9 -4 11
-17 33 -11 40 11 6 17 13 20 42 17 l34 -4 -23 17 c-17 13 -26 15 -36 7 -10 -8
-17 -7 -29 4 -14 15 -14 18 1 39 9 13 16 34 16 46 0 13 3 23 8 23 4 0 13 4 21
9 11 7 6 19 -25 59 -36 45 -42 48 -59 36 -26 -19 -44 -18 -52 4 -4 9 -14 22
-22 29 -14 11 -14 12 2 13 9 0 36 12 60 27 56 36 91 38 107 7 8 -13 17 -24 22
-24 4 0 8 -7 8 -15 0 -8 8 -15 17 -15 14 0 13 3 -5 23 -12 13 -22 27 -22 33 0
5 -30 37 -68 71 -166 152 -184 171 -173 177 7 4 56 -35 119 -93 59 -56 114
-101 123 -101 9 0 22 -7 29 -15 7 -9 19 -14 27 -11 8 3 12 2 9 -3 -3 -4 9 -22
27 -39 29 -28 35 -30 70 -22 21 4 40 10 41 12 1 1 24 30 52 62 27 33 43 56 37
52 -17 -10 -16 -4 4 39 10 21 20 31 24 24 3 -6 5 7 4 30 -2 45 4 49 39 26 22
-14 28 -13 98 27 125 70 169 119 208 228 19 51 24 85 24 165 0 88 -3 107 -27
158 -52 113 -121 175 -243 218 -79 27 -231 34 -339 14z m287 -755 c12 -10 24
-18 27 -15 4 2 8 -5 8 -16 2 -26 -6 -24 -39 8 -23 22 -28 24 -28 9 0 -9 -5
-14 -10 -11 -6 4 -8 11 -5 16 4 5 1 9 -5 9 -6 0 -8 5 -5 10 10 16 34 12 57
-10z m-692 -170 c-12 -8 -10 -10 10 -10 24 -1 24 -1 6 -15 -17 -13 -21 -13
-32 3 -15 20 -9 32 14 32 15 0 15 -2 2 -10z m470 -95 c0 4 5 3 12 -1 8 -5 6
-10 -8 -14 -24 -9 -41 -3 -41 15 0 10 5 11 19 4 10 -5 18 -7 18 -4z m-340 -64
c0 -12 -29 -23 -41 -15 -18 10 -9 24 16 24 14 0 25 -4 25 -9z m26 -33 c4 -6
-1 -17 -12 -25 -16 -12 -20 -11 -31 4 -10 13 -10 18 0 25 17 11 35 10 43 -4z
m75 -26 c-6 -2 -9 -8 -5 -13 9 -15 -23 -10 -36 6 -13 15 -13 16 30 28 18 5 29
-15 11 -21z m-41 -17 c10 -12 8 -16 -11 -24 -15 -5 -29 -5 -36 1 -23 18 -15
29 28 37 4 0 12 -6 19 -14z m85 -6 c4 -6 -3 -17 -15 -26 -16 -11 -20 -22 -16
-39 5 -17 1 -26 -13 -33 -16 -9 -23 -5 -45 24 -14 18 -26 35 -26 37 0 2 14 5
30 6 29 2 40 -10 20 -23 -15 -10 -12 -25 4 -19 21 8 24 37 6 51 -13 11 -13 12
3 13 9 0 17 -5 17 -11 0 -5 4 -8 10 -4 5 3 7 12 3 20 -6 17 12 20 22 4z"/>
<path d="M1410 1267 c0 -31 5 -59 11 -63 8 -4 10 10 6 50 -7 76 -17 84 -17 13z"/>
<path d="M1277 1243 c-18 -17 -5 -29 28 -25 19 2 35 9 35 14 0 6 -13 7 -31 3
-22 -5 -29 -4 -25 4 8 12 3 15 -7 4z"/>
<path d="M728 1180 c-21 -4 -46 -14 -56 -23 -10 -10 -28 -17 -40 -17 -28 0
-81 -68 -62 -80 7 -5 11 -18 8 -34 -6 -32 9 -34 21 -3 6 14 5 27 -4 37 -20 24
8 69 43 70 15 0 16 -27 1 -32 -9 -3 -9 -9 0 -25 13 -26 15 -61 2 -47 -5 5 -11
18 -14 29 -4 15 -5 14 -6 -7 0 -15 4 -30 10 -33 6 -5 3 -13 -10 -22 -15 -10
-19 -19 -12 -31 17 -35 20 -79 5 -100 -16 -23 -10 -49 10 -49 8 0 12 6 9 14
-3 7 -2 13 1 13 4 0 11 -10 16 -22 6 -16 9 -18 9 -7 1 9 -5 22 -13 28 -13 11
-12 17 3 44 19 35 49 52 36 21 -18 -44 -17 -62 5 -74 17 -9 19 -14 10 -25 -7
-9 -9 -29 -5 -53 l6 -39 55 10 c37 6 59 6 67 -1 8 -7 18 -7 27 -2 13 8 12 10
0 15 -13 4 -69 11 -129 14 -11 1 -11 4 -1 16 11 13 10 14 -4 9 -20 -8 -21 5
-1 33 14 19 13 21 -10 27 -15 4 -25 14 -25 25 0 23 39 73 51 66 5 -4 9 -1 9 4
0 24 -87 7 -93 -18 -4 -14 -5 -14 -12 2 -12 27 1 46 30 43 24 -3 25 -2 9 15
-9 10 -13 23 -8 30 4 7 3 10 -3 6 -14 -9 -9 79 6 96 6 8 9 21 5 30 -8 21 12
30 58 29 28 -1 38 2 38 13 0 8 -1 14 -2 14 -2 -1 -20 -5 -40 -9z"/>
<path d="M796 1167 c-17 -12 -16 -14 7 -24 14 -6 33 -10 43 -9 11 2 25 -1 33
-7 10 -9 13 -7 10 8 -5 25 -50 49 -61 32 -3 -6 -4 -15 -2 -19 3 -4 -2 -5 -11
-1 -13 4 -14 8 -4 14 8 4 11 10 8 13 -3 3 -13 0 -23 -7z"/>
<path d="M696 1130 c4 -14 9 -27 13 -30 12 -10 10 -28 -4 -34 -10 -3 -15 1
-15 12 0 14 -2 15 -10 2 -6 -9 -5 -17 3 -22 9 -6 9 -8 0 -8 -7 0 -13 -5 -13
-11 0 -6 13 -1 29 10 52 37 86 22 51 -22 -11 -14 -20 -30 -20 -36 0 -6 -10
-11 -22 -11 -35 0 -6 -21 31 -22 17 -1 31 -5 31 -10 0 -4 -4 -8 -9 -8 -5 0 -7
-9 -4 -20 4 -14 0 -20 -11 -20 -9 0 -16 -4 -16 -9 0 -10 32 -7 49 3 17 11 4
65 -20 85 l-24 19 24 26 c20 21 22 28 11 41 -7 8 -19 15 -26 15 -8 0 -14 6
-14 14 0 8 -9 24 -21 37 l-20 24 7 -25z"/>
<path d="M1340 1125 c-11 -13 -8 -15 18 -15 17 0 34 5 37 10 3 6 2 10 -4 10
-5 0 -16 2 -24 5 -7 3 -20 -1 -27 -10z"/>
<path d="M543 1013 c-7 -2 -13 -13 -13 -24 0 -10 -6 -19 -12 -19 -9 0 -8 -4 2
-11 11 -8 12 -12 3 -16 -19 -7 -16 -30 4 -37 15 -6 15 -9 3 -16 -8 -5 -19 -6
-25 -2 -5 3 -3 -2 5 -12 12 -16 12 -19 -2 -27 -13 -7 -16 -20 -13 -47 2 -20 4
-43 4 -49 1 -7 8 -13 16 -13 9 0 15 -6 13 -12 -1 -7 4 -24 11 -37 11 -20 11
-25 0 -33 -11 -8 -11 -9 1 -5 8 2 15 14 14 26 0 11 3 21 8 21 5 0 6 5 3 11 -4
6 -14 8 -22 5 -8 -3 -11 -1 -8 5 4 5 15 7 24 4 21 -6 46 19 36 35 -5 8 2 10
21 8 38 -4 41 -23 8 -53 -25 -23 -24 -34 2 -17 35 23 40 84 8 96 -8 3 -12 2
-9 -4 8 -13 -11 -13 -36 0 -17 10 -18 8 -9 -16 13 -34 4 -47 -23 -32 -32 17
-47 34 -46 55 0 16 1 16 9 -2 7 -14 8 -9 4 18 -4 23 -2 37 4 37 6 0 10 -14 10
-31 -1 -17 3 -34 9 -37 5 -4 13 -14 16 -22 4 -12 6 -12 6 2 1 9 -3 19 -8 22
-10 7 -7 83 3 93 11 12 6 44 -8 49 -8 3 -13 11 -10 17 4 11 13 78 10 76 0 0
-7 -3 -13 -6z"/>
<path d="M123 997 c-2 -4 -13 -5 -23 -2 -10 3 -21 1 -25 -5 -4 -6 4 -10 18
-10 39 0 87 12 87 21 0 11 -50 8 -57 -4z"/>
<path d="M842 957 c-17 -18 -20 -31 -17 -77 3 -30 2 -63 -1 -73 -5 -17 -7 -17
-25 -2 -10 10 -25 15 -34 12 -8 -4 -15 -3 -15 2 0 5 9 11 20 14 11 3 20 10 20
16 0 15 -12 14 -35 -3 -21 -15 -14 -49 9 -40 9 3 26 -5 40 -19 14 -14 35 -28
46 -32 11 -3 20 -11 20 -16 0 -5 5 -9 10 -9 18 0 10 20 -20 50 -17 17 -26 30
-20 30 12 0 12 65 1 95 -16 41 53 63 91 28 18 -16 25 -8 10 12 -10 14 -49 35
-65 35 -7 0 -23 -10 -35 -23z"/>
<path d="M132 941 c-17 -11 7 -21 49 -21 33 0 39 15 9 23 -11 3 -20 1 -20 -4
0 -5 -5 -9 -11 -9 -5 0 -7 5 -4 10 8 12 -5 13 -23 1z"/>
<path d="M866 915 c7 -18 20 -19 30 -3 6 9 10 5 15 -12 6 -22 7 -23 14 -6 9
21 -8 36 -42 36 -16 0 -21 -4 -17 -15z"/>
<path d="M1253 693 c-7 -2 -13 -11 -13 -18 0 -8 -6 -18 -12 -22 -7 -4 -22 -25
-32 -45 -11 -21 -24 -35 -30 -31 -6 3 -8 3 -4 -1 8 -9 -20 -41 -42 -48 -8 -3
-23 -1 -32 4 -20 10 -24 -2 -7 -19 11 -11 -7 -53 -23 -53 -5 0 -8 -4 -8 -10 0
-5 -8 -19 -17 -30 -13 -14 -20 -17 -30 -8 -9 7 -13 7 -13 0 0 -6 10 -18 23
-27 22 -16 21 -16 -12 -10 -29 5 -32 4 -22 -9 14 -17 0 -29 -23 -20 -9 3 -16
2 -16 -4 0 -5 7 -12 15 -16 8 -3 15 -11 14 -18 0 -10 -2 -10 -6 0 -2 6 -9 9
-14 6 -6 -3 -17 0 -26 8 -15 12 -15 11 -4 -11 16 -29 0 -51 -24 -31 -16 13
-20 4 -9 -24 3 -9 13 -16 21 -16 8 0 12 -4 9 -8 -3 -4 11 -16 30 -27 20 -10
34 -26 34 -37 0 -24 32 -23 55 2 10 12 24 19 30 16 16 -6 48 23 83 76 26 39
28 49 16 59 -11 9 -20 5 -43 -20 -16 -17 -35 -31 -41 -31 -10 0 -10 -3 0 -15
17 -20 7 -41 -28 -59 -27 -14 -31 -14 -43 1 -12 14 -11 15 8 9 22 -7 70 10 59
21 -3 3 -18 7 -32 9 -15 1 -31 10 -36 19 -5 8 -13 13 -19 10 -16 -10 -10 23
11 59 12 19 28 37 36 40 9 4 14 13 10 21 -3 8 -2 14 2 12 18 -6 63 47 135 159
73 115 79 122 120 131 l42 11 -40 0 c-22 0 -46 -2 -52 -5z m-286 -435 c13 -12
23 -30 23 -41 0 -19 -1 -20 -20 -2 -11 10 -20 24 -20 32 0 7 -4 13 -10 13 -5
0 -10 5 -10 10 0 16 12 12 37 -12z"/>
<path d="M1270 655 c-15 -18 -150 -234 -150 -240 0 -3 7 -5 15 -5 13 0 17 6
14 26 0 3 8 12 18 21 10 8 12 11 4 7 -9 -4 -12 -2 -9 7 3 8 10 14 15 14 6 0
15 4 20 9 5 5 2 6 -6 1 -9 -5 -12 -3 -9 6 3 8 10 14 16 14 7 0 22 16 35 35 53
79 62 94 48 86 -9 -6 -12 -5 -9 5 3 8 10 14 16 14 5 0 13 3 16 6 3 3 -1 6 -9
6 -8 0 -20 -6 -25 -12z m-34 -87 c-20 -29 -36 -49 -36 -46 0 13 62 109 67 104
3 -2 -11 -28 -31 -58z"/>
<path d="M662 649 c2 -6 7 -10 11 -9 5 0 16 -9 26 -21 39 -49 196 -24 179 28
-2 4 -11 9 -20 10 -13 2 -17 -3 -15 -20 2 -20 -2 -22 -50 -23 -41 -2 -59 3
-84 22 -35 26 -53 31 -47 13z"/>
<path d="M541 641 c-8 -5 -11 -16 -7 -26 3 -10 1 -24 -5 -31 -15 -18 0 -18 24
0 9 7 17 25 17 40 0 28 -6 31 -29 17z"/>
<path d="M1237 525 c-42 -63 -77 -118 -77 -123 0 -4 -13 -23 -28 -42 -32 -40
-46 -70 -32 -70 6 0 10 6 10 13 0 8 9 22 20 32 11 10 20 14 20 10 0 -5 6 -1
13 10 10 12 16 14 21 7 4 -7 12 -12 17 -12 6 0 0 14 -12 32 -13 17 -18 28 -11
24 8 -5 10 -2 5 10 -5 14 -3 15 14 6 11 -6 25 -18 32 -26 7 -9 24 -13 42 -11
16 2 29 -1 29 -7 0 -6 17 -8 48 -4 41 5 49 3 64 -17 l18 -22 0 23 c0 13 -6 22
-15 22 -8 0 -15 5 -15 11 0 5 -8 9 -17 8 -33 -3 -44 1 -37 12 4 8 -1 9 -17 3
-30 -10 -71 -12 -84 -5 -5 3 8 9 30 13 38 6 38 6 -10 5 -36 -2 -49 2 -47 11 1
7 27 50 57 97 30 46 55 89 55 94 0 27 -22 3 -93 -104z"/>
<path d="M940 531 c0 -37 -10 -62 -20 -56 -5 3 -12 0 -16 -6 -4 -8 -3 -9 4 -5
32 20 0 -37 -57 -98 -35 -39 -35 -39 -6 -21 32 20 64 54 65 70 1 12 36 55 45
55 14 0 -8 -66 -28 -82 -11 -10 -17 -18 -14 -18 4 0 -3 -11 -15 -25 -11 -13
-26 -22 -31 -18 -6 3 -7 1 -4 -4 4 -6 -2 -22 -13 -36 -19 -24 -19 -26 -3 -56
10 -17 24 -31 31 -31 8 0 16 -9 19 -19 5 -19 29 -31 49 -24 11 4 -50 78 -64
78 -4 0 -16 6 -27 12 -18 10 -16 14 30 69 28 33 57 68 65 79 8 11 37 42 63 68
27 27 46 52 42 55 -4 4 -11 -1 -16 -11 -6 -9 -16 -17 -23 -17 -8 0 -16 -9 -19
-20 -3 -11 -10 -20 -16 -20 -11 0 -16 31 -14 77 1 12 -5 24 -13 27 -10 4 -14
-3 -14 -23z"/>
<path d="M631 514 c7 -8 26 -22 43 -31 l31 -15 -35 31 c-37 32 -62 42 -39 15z"/>
<path d="M876 521 c-4 -5 -26 -16 -50 -24 -41 -14 -46 -14 -65 4 -11 10 -30
19 -43 19 -22 0 -22 0 -3 -14 11 -7 29 -15 40 -17 12 -3 20 -12 20 -23 0 -11
7 -21 15 -23 11 -3 11 -2 3 4 -16 12 -3 29 28 36 25 6 82 46 67 47 -4 0 -9 -4
-12 -9z"/>
<path d="M751 450 c-1 -27 14 -58 24 -49 3 3 -1 21 -9 40 -14 31 -15 32 -15 9z"/>
<path d="M231 390 c10 -21 19 -42 19 -45 0 -3 -20 9 -44 27 -24 18 -42 35 -41
39 4 6 -26 3 -105 -10 -38 -6 -46 -9 -25 -10 95 -6 245 -69 245 -103 0 -6 3
-9 6 -6 3 4 -3 19 -13 34 -10 16 -16 28 -13 29 8 1 -32 85 -41 85 -4 0 1 -18
12 -40z"/>
<path d="M1070 378 c0 -9 -13 -32 -30 -50 -36 -39 -36 -44 -9 -59 17 -9 20 -8
14 2 -5 7 -1 17 10 26 11 7 15 13 11 13 -4 0 1 13 11 30 13 23 15 32 5 42 -9
9 -12 8 -12 -4z"/>
<path d="M617 374 c-7 -7 18 -35 48 -53 20 -13 20 -13 0 -6 -27 8 -9 -9 29
-29 33 -17 44 -46 18 -46 -10 0 -27 -3 -39 -6 -17 -5 -23 -2 -23 9 0 22 -60
62 -93 62 -34 1 -33 -1 25 -54 34 -31 58 -44 88 -48 22 -3 40 -9 40 -13 0 -14
31 -20 51 -10 15 9 17 13 7 24 -11 12 -14 11 -20 -3 -5 -11 -7 -8 -7 12 -1 16
3 26 8 23 4 -3 6 6 3 19 -2 14 -9 25 -14 25 -6 0 -19 12 -30 26 -12 14 -31 30
-44 35 -13 4 -23 14 -22 20 3 13 -15 23 -25 13z"/>
<path d="M516 351 c-10 -11 -31 -25 -47 -31 -32 -14 -37 -25 -14 -34 16 -6 85
53 85 73 0 15 -4 14 -24 -8z"/>
<path d="M1176 346 c3 -9 10 -16 15 -16 15 0 9 -43 -10 -80 -19 -34 -19 -34 5
-53 27 -21 32 -42 8 -33 -8 3 -13 2 -10 -2 2 -4 -9 -17 -25 -27 -39 -26 -37
-45 4 -45 24 0 28 3 17 10 -13 8 -13 10 1 10 16 0 39 39 39 65 0 8 -10 21 -22
29 -17 12 -19 16 -6 16 21 0 28 20 16 43 -14 28 0 20 46 -27 31 -32 46 -42 57
-35 11 7 10 9 -4 9 -14 0 -17 5 -12 21 5 13 3 19 -3 15 -5 -3 -20 10 -33 29
-13 19 -31 37 -39 39 -8 3 10 3 40 1 54 -4 55 -4 21 8 -19 8 -37 19 -39 25 -2
8 -8 8 -22 0 -14 -9 -22 -9 -34 2 -14 11 -16 10 -10 -4z"/>
<path d="M55 322 c-11 -12 -26 -22 -35 -23 -8 -1 -4 -4 10 -9 l25 -7 -28 -11
c-15 -6 -27 -16 -27 -22 0 -7 6 -8 19 0 11 5 26 7 35 4 11 -4 17 4 21 30 10
51 2 65 -20 38z"/>
<path d="M1386 273 c-24 -90 -47 -152 -58 -159 -5 -3 -6 -15 -2 -26 4 -13 -1
-26 -15 -39 -19 -18 -19 -22 -7 -35 8 -7 22 -11 30 -8 23 9 20 23 -4 17 -27
-7 -26 14 1 22 16 5 19 12 15 30 -5 18 0 25 24 35 17 7 30 17 30 22 0 5 5 6
12 2 7 -4 8 -3 4 4 -5 9 -12 8 -26 0 -35 -22 -36 3 -1 31 37 30 50 79 32 116
-6 11 -11 28 -13 38 -2 10 -11 -12 -22 -50z m32 -31 c-3 -33 -6 -38 -23 -34
-11 3 -14 7 -8 9 7 3 9 11 6 19 -7 18 3 44 17 44 6 0 9 -16 8 -38z"/>
<path d="M208 298 c12 -6 22 -17 22 -25 0 -8 4 -11 10 -8 5 3 7 0 4 -9 -4 -10
0 -14 12 -12 11 2 24 -7 31 -22 19 -36 16 -42 -14 -26 -16 7 -39 14 -53 13
-24 -1 -24 -1 5 -11 37 -13 88 -48 81 -56 -3 -2 -12 1 -20 8 -9 6 -21 10 -28
7 -14 -5 -13 -5 45 -27 19 -7 27 -16 25 -28 -2 -9 2 -22 9 -27 8 -6 14 -25 16
-42 2 -34 17 -47 17 -15 0 20 -20 77 -37 108 -12 21 -24 65 -26 97 -1 9 -5 17
-10 17 -5 0 -7 7 -4 14 4 10 1 13 -9 9 -7 -3 -14 0 -14 6 0 12 -52 41 -72 40
-7 0 -3 -5 10 -11z"/>
<path d="M804 251 c3 -5 -1 -14 -9 -21 -19 -15 -10 -30 17 -30 20 0 20 -1 5
-18 -21 -23 -21 -41 -2 -66 8 -10 12 -23 8 -29 -3 -6 -2 -7 4 -4 5 3 18 -10
28 -29 30 -55 49 -60 74 -19 11 19 25 35 31 35 5 0 10 10 10 23 0 24 -17 47
-34 47 -6 0 -5 -4 3 -9 7 -5 9 -11 4 -14 -5 -3 -35 18 -65 48 -31 29 -59 50
-63 47 -4 -4 -4 5 0 21 5 18 3 27 -5 27 -6 0 -9 -4 -6 -9z m46 -101 c8 -5 15
-15 15 -22 0 -7 5 -14 10 -14 48 -7 71 -33 43 -50 -7 -5 -8 -3 -3 7 8 12 6 12
-9 0 -9 -8 -15 -20 -12 -28 7 -19 -9 -16 -25 4 -8 9 -9 14 -3 10 28 -17 19 24
-12 54 -43 42 -46 66 -4 39z"/>
<path d="M1227 154 c2 -45 0 -85 -5 -88 -5 -3 -7 6 -4 19 2 15 0 25 -7 25 -6
0 -11 -11 -11 -24 0 -12 -11 -35 -25 -50 -17 -19 -20 -26 -9 -26 8 0 17 7 20
15 9 22 45 19 51 -4 3 -11 13 -19 24 -18 15 1 16 4 5 17 -7 8 -13 43 -14 82
-1 37 -8 82 -16 100 -13 31 -13 28 -9 -48z"/>
<path d="M80 191 c0 -3 36 -13 80 -21 103 -20 110 -8 10 17 -30 7 -90 10 -90
4z"/>
<path d="M51 162 c0 -18 -6 -42 -11 -53 -7 -13 -7 -19 0 -19 5 0 10 6 10 13 0
7 9 18 20 25 23 14 26 32 6 32 -8 0 -17 8 -19 18 -3 9 -5 2 -6 -16z"/>
<path d="M1092 170 c-7 -11 -23 -20 -37 -20 -16 0 -25 -6 -25 -15 0 -8 -6 -15
-13 -15 -7 0 -18 -9 -25 -20 -7 -11 -9 -20 -5 -20 17 0 133 90 133 103 0 14
-15 7 -28 -13z"/>
<path d="M135 143 c-27 -5 -75 -43 -55 -42 8 0 26 6 40 14 14 8 39 15 55 15
23 0 27 3 15 10 -15 10 -20 10 -55 3z"/>
<path d="M567 138 c-9 -5 -17 -16 -17 -23 0 -11 14 -15 54 -15 30 0 57 4 60 8
8 14 -78 41 -97 30z"/>
<path d="M216 111 c-3 -4 -17 -6 -31 -3 -14 2 -25 0 -25 -6 0 -14 16 -18 55
-14 24 3 32 8 28 18 -6 16 -19 18 -27 5z"/>
<path d="M731 78 c-1 -25 2 -28 32 -27 28 1 29 2 8 8 -13 3 -28 15 -32 26 -6
17 -8 16 -8 -7z"/>
<path d="M1392 91 c-17 -10 -12 -43 6 -47 7 -1 8 0 2 3 -18 9 -11 33 10 33 11
0 20 5 20 10 0 12 -20 13 -38 1z"/>
<path d="M64 69 c-30 -8 -56 -39 -34 -39 27 0 90 26 90 37 0 15 -12 15 -56 2z"/>
<path d="M393 62 c-9 -5 -10 -17 -4 -37 5 -17 10 -26 11 -20 4 19 9 65 7 65
-1 0 -7 -4 -14 -8z"/>
<path d="M174 43 c2 -10 6 -17 10 -16 24 6 29 11 22 21 -11 18 -35 14 -32 -5z"/>
</g>
</svg>
